/* XPM */
static char * coin2_xpm[] = {
"64 64 27 1",
" 	c None",
".	c #3B3546",
"+	c #2D4046",
"@	c #2C4646",
"#	c #363636",
"$	c #262626",
"%	c #484646",
"&	c #171717",
"*	c #391010",
"=	c #614246",
"-	c #3D5734",
";	c #00481F",
">	c #714F46",
",	c #99A846",
"'	c #837A34",
")	c #18C100",
"!	c #008026",
"~	c #000000",
"{	c #FFE1D6",
"]	c #C0FF93",
"^	c #A2FF55",
"/	c #63FF00",
"(	c #223100",
"_	c #FFF3EF",
":	c #F3FFB0",
"<	c #FFFFFF",
"[	c #D9FFF1",
"                                                                ",
"                                                                ",
"                                                                ",
"                                                                ",
"                                                                ",
"                                                                ",
"                                                                ",
"                                                                ",
"                                                                ",
"                                                                ",
"                                                                ",
"                                                                ",
"                                                                ",
"                                                                ",
"                                                                ",
"                                                                ",
"                                                                ",
"                                                                ",
"                                                                ",
"                                                                ",
"                                                                ",
"                                                                ",
"                                                                ",
"                                                                ",
"                                                                ",
"                                                                ",
"                                                                ",
"                                                                ",
"                                                                ",
"                         .+@@@@@@@@@@+.                         ",
"                        .#$$$#######$$%.                        ",
"                     ..+%&&$%@@@@@@%#*$%+..                     ",
"                    +%%%%%+==......@---;##%+                    ",
"                   .#$#+>    ,,,,,,,')!!;~&%.                   ",
"                .+@%#%+   {{{]^^^/////))!;($%@+.                ",
"               +%#%@=>  {___:]^^//////)))!!;;;$#+               ",
"              .%#%+    {___:]^^//////////)))!;~$%.              ",
"             .%#%+   __<<_:]^^/////////////)!!;&$%.             ",
"            .%#%+   __<<<_:]^///////////////)!!;&$%.            ",
"           .%##+   __<<<<_]^////////////////))!!;&#@.           ",
"           %$#%.  {_<<<<<_]^/////////////////))!!;$$%           ",
"           %*#+  {_<<<<<<_:]^/////////////////))!-#*%           ",
"          .#$%=  _<<<<<<<<:]^^/////////////////)!-%$#.          ",
"          +##+>  _<<<<<<<<_:]^^/////////////^^^,>+@##+          ",
"        .+%#%.  {_<<<<<<<<<_:]^^////////////^]], .+%#%+.        ",
"        %%#$%.   {_____<<<<<_:]]^^^^^^^^^^^]]]    .%$#%%        ",
"        %#$$@.  ,]]]]]:_<<<<<_[{{{{{{{{{{{{[[_{   .%$$#%        ",
"        %%$$%+.@@^^^^^]:_<<<<<<<<<<____________{  .%$$%%        ",
"        %#$$%@@!))///^^]:_<<<<<<<<<<_[[[[[[[{{{   .%$$#%        ",
"        %%$&#--;!))///^^]:_<<<<<<<<_:]]]]]]]],,   .%$$%%        ",
"        .+%$;;;;!!)////^^][<<<<<<<_:]^^//////)>  .+%#%+.        ",
"          +$(;;;;!))////^][<<<<<<_:]^^/////)))@+=+@##+          ",
"          .#&;;;;!!))////^{<<<<<_:]^^//////))!!-%%%##.          ",
"          .%&;;;;;!!))///^ ______]^^//////))!!;;;##$%.          ",
"           %$&;;;;;!!)))), {____{]^////)))!!!;;;;$$$%           ",
"           .%#&;;;;!!!))),  {{{{ ,////))!!!!!;;;;&#%.           ",
"            .%$&;;;;!!!@,,       ,)))))!!!!!;;;;&$%.            ",
"             +%$&;;;;!!@         >!!!!!!!!!;;;;&$%+             ",
"              +%$((;;;-@>        .@!!!!!!!;;;(($%+              ",
"               +#&&~&#-%+=..    ..+@;;;;;;;&~&&#+               ",
"               .+@%#$##%%%+.......+@;;;;;;&$#%@+.               ",
"                   +%#####%%@@@@@@%#$;;;;&$%.                   ",
"                    @#$&&&$$$$$$$$$$&~~~~&#@                    ",
"                    @#&~~~~~~~~~~~~~~~~~~&#@                    "};
