/* XPM */
static char * collectable_xpm[] = {
"64 64 501 2",
"  	c None",
". 	c #564747",
"+ 	c #534A47",
"@ 	c #3B373D",
"# 	c #293032",
"$ 	c #263131",
"% 	c #2C3535",
"& 	c #333B3B",
"* 	c #293333",
"= 	c #2B3134",
"- 	c #464246",
"; 	c #453C46",
"> 	c #424447",
", 	c #2E2D2E",
"' 	c #1C1D1D",
") 	c #302E2E",
"! 	c #3E4343",
"~ 	c #2E4343",
"{ 	c #2F4343",
"] 	c #3E4444",
"^ 	c #383937",
"/ 	c #361F1C",
"( 	c #353634",
"_ 	c #404446",
": 	c #443B45",
"< 	c #3D4043",
"[ 	c #434242",
"} 	c #454444",
"| 	c #494646",
"1 	c #4B4645",
"2 	c #414044",
"3 	c #644144",
"4 	c #5E4B45",
"5 	c #535646",
"6 	c #545546",
"7 	c #4D5847",
"8 	c #4C5C37",
"9 	c #3A6C2F",
"0 	c #2F5B2E",
"a 	c #22472C",
"b 	c #323332",
"c 	c #403F40",
"d 	c #404346",
"e 	c #4A4346",
"f 	c #373739",
"g 	c #333434",
"h 	c #343A3D",
"i 	c #5E4441",
"j 	c #C1C98B",
"k 	c #A3D85C",
"l 	c #9ED84D",
"m 	c #9BD84B",
"n 	c #83D832",
"o 	c #84D832",
"p 	c #7BBE2B",
"q 	c #41D308",
"r 	c #099B1D",
"s 	c #048220",
"t 	c #003A15",
"u 	c #1D2114",
"v 	c #3F3C3E",
"w 	c #4B4247",
"x 	c #514546",
"y 	c #414045",
"z 	c #373E3F",
"A 	c #3D4646",
"B 	c #4A3E40",
"C 	c #5A4845",
"D 	c #FDE2DA",
"E 	c #FFEDE7",
"F 	c #FEF0E0",
"G 	c #E0FCAB",
"H 	c #ADFF70",
"I 	c #A2FF55",
"J 	c #80FF35",
"K 	c #62FF00",
"L 	c #5FFA00",
"M 	c #13C100",
"N 	c #10B60C",
"O 	c #027F21",
"P 	c #12641D",
"Q 	c #1C3A26",
"R 	c #274733",
"S 	c #213A33",
"T 	c #35353A",
"U 	c #504545",
"V 	c #444445",
"W 	c #3D3C3C",
"X 	c #404344",
"Y 	c #4D4646",
"Z 	c #FFE9E1",
"` 	c #FFF3EE",
" .	c #FEF4EB",
"..	c #EDFDB7",
"+.	c #BDFF86",
"@.	c #A4FF5A",
"#.	c #7CFF30",
"$.	c #63FF01",
"%.	c #63FF00",
"&.	c #62FE00",
"*.	c #59F400",
"=.	c #5AF500",
"-.	c #34CA0A",
";.	c #17B60D",
">.	c #11A612",
",.	c #006523",
"'.	c #082B14",
").	c #282828",
"!.	c #434345",
"~.	c #444245",
"{.	c #3C3B3B",
"].	c #434445",
"^.	c #484446",
"/.	c #FFF0EC",
"(.	c #FFF7F4",
"_.	c #FFFFFE",
":.	c #F2FDB8",
"<.	c #BEFF8C",
"[.	c #A1FF56",
"}.	c #7EFF32",
"|.	c #64FF02",
"1.	c #61FD00",
"2.	c #5EF900",
"3.	c #25BE0C",
"4.	c #018325",
"5.	c #006221",
"6.	c #152B1B",
"7.	c #2D2D2D",
"8.	c #444144",
"9.	c #424044",
"0.	c #3B3A3A",
"a.	c #414244",
"b.	c #FFEFEA",
"c.	c #FFF8F5",
"d.	c #FFFFFF",
"e.	c #FFF7F5",
"f.	c #E6FEAE",
"g.	c #B2FF7C",
"h.	c #81FF34",
"i.	c #0BAF11",
"j.	c #028724",
"k.	c #016122",
"l.	c #313030",
"m.	c #3E4045",
"n.	c #413F43",
"o.	c #383737",
"p.	c #3D3C3B",
"q.	c #383C44",
"r.	c #FFEAE4",
"s.	c #FFF9F7",
"t.	c #C2FE99",
"u.	c #96FF49",
"v.	c #5FFF00",
"w.	c #5EFA00",
"x.	c #39D500",
"y.	c #0EAF12",
"z.	c #028525",
"A.	c #016422",
"B.	c #1C3122",
"C.	c #2B3233",
"D.	c #3E3E43",
"E.	c #453F3F",
"F.	c #342626",
"G.	c #373E40",
"H.	c #FFE3DA",
"I.	c #FFF8F6",
"J.	c #37D300",
"K.	c #13B310",
"L.	c #117D27",
"M.	c #334931",
"N.	c #332224",
"O.	c #473A44",
"P.	c #353434",
"Q.	c #363435",
"R.	c #544446",
"S.	c #FFFEFE",
"T.	c #F2FEBC",
"U.	c #64FF04",
"V.	c #69FF12",
"W.	c #66FC12",
"X.	c #37C90C",
"Y.	c #1E7D29",
"Z.	c #40503B",
"`.	c #373435",
" +	c #3A4145",
".+	c #373737",
"++	c #363B3E",
"@+	c #5E4946",
"#+	c #FED5C9",
"$+	c #FEF8F1",
"%+	c #EDFDB6",
"&+	c #7CFF2F",
"*+	c #73FF23",
"=+	c #A5FF5D",
"-+	c #A8FF66",
";+	c #9AC04E",
">+	c #6A5345",
",+	c #2D4146",
"'+	c #363E3E",
")+	c #3D4246",
"!+	c #363636",
"~+	c #454247",
"{+	c #FFDBD1",
"]+	c #FFF3F1",
"^+	c #FFFBFB",
"/+	c #FFFAFB",
"(+	c #FFFCFC",
"_+	c #FEF9EF",
":+	c #EBFDB8",
"<+	c #BEFF83",
"[+	c #AEFF72",
"}+	c #83FF37",
"|+	c #81FF33",
"1+	c #82FF37",
"2+	c #99FF62",
"3+	c #B6FF80",
"4+	c #CBF899",
"5+	c #C3BB75",
"6+	c #473D46",
"7+	c #403F3F",
"8+	c #2E2E2D",
"9+	c #2A2E2D",
"0+	c #394147",
"a+	c #C2C380",
"b+	c #D2FAAB",
"c+	c #D5FBB5",
"d+	c #D9FBB6",
"e+	c #F9FAD3",
"f+	c #FFFEFF",
"g+	c #FEFAEE",
"h+	c #DFFDD7",
"i+	c #DEF3BE",
"j+	c #D8F0A5",
"k+	c #D7F0A5",
"l+	c #D8F0A6",
"m+	c #D7F2AB",
"n+	c #D1FFD7",
"o+	c #DAFDD4",
"p+	c #F6E7CE",
"q+	c #2F2F2F",
"r+	c #464444",
"s+	c #2A2A2A",
"t+	c #2E2F2E",
"u+	c #3F4447",
"v+	c #3C3B46",
"w+	c #374A45",
"x+	c #63954B",
"y+	c #A5FF61",
"z+	c #A5FF60",
"A+	c #ABFF68",
"B+	c #D5FFA0",
"C+	c #F9FAD4",
"D+	c #FBFFFD",
"E+	c #FEFDFC",
"F+	c #FFFDFC",
"G+	c #FFF1ED",
"H+	c #FEF2ED",
"I+	c #FDF2ED",
"J+	c #F7F6F0",
"K+	c #FBF4EF",
"L+	c #FFE0D6",
"M+	c #444247",
"N+	c #3E3D3D",
"O+	c #2E2D2D",
"P+	c #3F4644",
"Q+	c #304943",
"R+	c #0E772A",
"S+	c #19B70F",
"T+	c #42D70A",
"U+	c #64FC0B",
"V+	c #67FF0D",
"W+	c #99FF4D",
"X+	c #ABFF6A",
"Y+	c #D7FF9E",
"Z+	c #F8F9D6",
"`+	c #FFFDFB",
" @	c #FDF7EB",
".@	c #D9FEE6",
"+@	c #D7FFE6",
"@@	c #DBFCE2",
"#@	c #F3E3C8",
"$@	c #F2DAC9",
"%@	c #424446",
"&@	c #353435",
"*@	c #202622",
"=@	c #2D472F",
"-@	c #31532E",
";@	c #0F4C22",
">@	c #038724",
",@	c #0FB40E",
"'@	c #4EE800",
")@	c #68FF10",
"!@	c #95FF49",
"~@	c #ABFF6D",
"{@	c #D8FF9D",
"]@	c #F0F9EA",
"^@	c #FDF9E9",
"/@	c #E7FEB0",
"(@	c #B9FF82",
"_@	c #B2FF7D",
":@	c #A6FF76",
"<@	c #A7FF76",
"[@	c #A7FF77",
"}@	c #97E965",
"|@	c #809C38",
"1@	c #434347",
"2@	c #343333",
"3@	c #363535",
"4@	c #3D4244",
"5@	c #242C23",
"6@	c #0E4217",
"7@	c #00481F",
"8@	c #00491F",
"9@	c #006823",
"0@	c #089A1E",
"a@	c #36D300",
"b@	c #6BFF17",
"c@	c #93FF45",
"d@	c #B8FF85",
"e@	c #D8FFEB",
"f@	c #E6FDB2",
"g@	c #B8FF7E",
"h@	c #A0FF54",
"i@	c #79FF2A",
"j@	c #60FF00",
"k@	c #5EFD00",
"l@	c #40DF00",
"m@	c #31D400",
"n@	c #3C8E34",
"o@	c #5F4446",
"p@	c #2D3F46",
"q@	c #394041",
"r@	c #383838",
"s@	c #3E4345",
"t@	c #413944",
"u@	c #113418",
"v@	c #005320",
"w@	c #10AE13",
"x@	c #30CE00",
"y@	c #60FC00",
"z@	c #6AFF14",
"A@	c #9CFF59",
"B@	c #EBF0D6",
"C@	c #FDF8EC",
"D@	c #A2FF57",
"E@	c #76FF28",
"F@	c #60FB00",
"G@	c #19C200",
"H@	c #11AE13",
"I@	c #078129",
"J@	c #365A36",
"K@	c #4A4645",
"L@	c #444546",
"M@	c #3C3D3D",
"N@	c #403E3E",
"O@	c #0F301A",
"P@	c #01471F",
"Q@	c #006022",
"R@	c #018125",
"S@	c #13B211",
"T@	c #2DCB00",
"U@	c #5CF900",
"V@	c #92FA47",
"W@	c #F1D5AF",
"X@	c #FFF3EF",
"Y@	c #FFF4F0",
"Z@	c #F5F4E0",
"`@	c #B9FF83",
" #	c #62FD00",
".#	c #2CC706",
"+#	c #094A21",
"@#	c #184526",
"##	c #373636",
"$#	c #414040",
"%#	c #424042",
"&#	c #2C2A2B",
"*#	c #14361E",
"=#	c #00471F",
"-#	c #006D23",
";#	c #008126",
">#	c #13B111",
",#	c #17C100",
"'#	c #0CC100",
")#	c #7AB236",
"!#	c #FFF0EB",
"~#	c #FFF0EA",
"{#	c #F1E0C0",
"]#	c #ADF775",
"^#	c #7AFF2B",
"/#	c #4AE400",
"(#	c #11B908",
"_#	c #12B211",
":#	c #028624",
"<#	c #008026",
"[#	c #084420",
"}#	c #262525",
"|#	c #2F2E2E",
"1#	c #534146",
"2#	c #424144",
"3#	c #2E2C2C",
"4#	c #10331B",
"5#	c #005C21",
"6#	c #007C25",
"7#	c #13A31F",
"8#	c #49AB2B",
"9#	c #8AAF3E",
"0#	c #79C62D",
"a#	c #47E400",
"b#	c #49E400",
"c#	c #46E000",
"d#	c #12BA08",
"e#	c #079221",
"f#	c #007E27",
"g#	c #10341B",
"h#	c #2D2C2C",
"i#	c #424043",
"j#	c #4E4446",
"k#	c #3E4041",
"l#	c #11301B",
"m#	c #005921",
"n#	c #007E26",
"o#	c #0E752F",
"p#	c #5B5948",
"q#	c #5E8338",
"r#	c #00951F",
"s#	c #04951F",
"t#	c #069021",
"u#	c #007F26",
"v#	c #474446",
"w#	c #424243",
"x#	c #272A24",
"y#	c #1F3305",
"z#	c #123E16",
"A#	c #01461F",
"B#	c #135024",
"C#	c #375838",
"D#	c #534947",
"E#	c #3A4245",
"F#	c #167033",
"G#	c #007D26",
"H#	c #005620",
"I#	c #01461E",
"J#	c #3B4045",
"K#	c #313536",
"L#	c #202524",
"M#	c #1E1F1E",
"N#	c #1A1B1A",
"O#	c #353934",
"P#	c #3F4F3A",
"Q#	c #414446",
"R#	c #524346",
"S#	c #3E3A46",
"T#	c #453946",
"U#	c #3D3646",
"V#	c #363946",
"W#	c #2C4547",
"X#	c #0D4928",
"Y#	c #07401D",
"Z#	c #191B1A",
"`#	c #4B4547",
" $	c #4E4947",
".$	c #424041",
"+$	c #393939",
"@$	c #424040",
"#$	c #3E4346",
"$$	c #414047",
"%$	c #333F47",
"&$	c #343F47",
"*$	c #384147",
"=$	c #374143",
"-$	c #1D3D29",
";$	c #024820",
">$	c #093E1D",
",$	c #1F2320",
"'$	c #373637",
")$	c #453E41",
"!$	c #3F4646",
"~$	c #353636",
"{$	c #242424",
"]$	c #252525",
"^$	c #343332",
"/$	c #333433",
"($	c #283232",
"_$	c #2D3333",
":$	c #212021",
"<$	c #032910",
"[$	c #00290F",
"}$	c #002A0F",
"|$	c #121C15",
"1$	c #303131",
"2$	c #404646",
"3$	c #3B4746",
"4$	c #333535",
"5$	c #151515",
"6$	c #030303",
"7$	c #040404",
"8$	c #090909",
"9$	c #0A0A0A",
"0$	c #050505",
"a$	c #000000",
"b$	c #121212",
"                                                                                                                                ",
"                                                                                                                                ",
"                                                                                                                                ",
"                                                                                                                                ",
"                                                                                                                                ",
"                                                                                                                                ",
"                                                                                                                                ",
"                                                                                                                                ",
"                                                                                                                                ",
"                                                                                                                                ",
"                                                                                                                                ",
"                                                                                                                                ",
"                                                                                                                                ",
"                                                                                                                                ",
"                                                                                                                                ",
"                                                                                                                                ",
"                                                                                                                                ",
"                                                                                                                                ",
"                                                                                                                                ",
"                                                                                                                                ",
"                                                                                                                                ",
"                                                                                                                                ",
"                                                                                                                                ",
"                                                                                                                                ",
"                                                                                                                                ",
"                                                                                                                                ",
"                                                                                                                                ",
"                                                                                                                                ",
"                                                                                                                                ",
"                                                                                                                                ",
"                                                                                                                                ",
"                                                                                                                                ",
"                                                                                                                                ",
"                                                                                                                                ",
"                                                                                                                                ",
"                                                      . + + + + + + + + .                                                       ",
"                                                    @ # $ % & & & & & * = -                                                     ",
"                                                ; > , ' ) ! ~ { { ~ ] ^ / ( _ :                                                 ",
"                                            < [ } | 1 2 3 4 5 6 6 6 7 8 9 0 a b c d                                             ",
"                                          e f g h i       j k l m n o p q r s t u v w                                           ",
"                                    x y z A B C     D E F G H I J K K K L M N O P Q R S T U                                     ",
"                                    V W X Y       Z `  ...+.@.#.$.%.%.%.&.*.=.-.;.>.,.'.).!.                                    ",
"                                  ~.{.].^.    /.(._.(.:.<.[.}.|.%.%.%.%.%.%.%.1.2.3.4.5.6.7.8.                                  ",
"                                9.0.a.^.    b.c.d.d.e.f.g.h.K %.%.%.%.%.%.%.%.%.%.*.i.j.k.6.l.m.                                ",
"                              n.o.p.q.    r.s.d.d.d.e.t.u.v.%.%.%.%.%.%.%.%.%.%.%.w.x.y.z.A.B.C.D.                              ",
"                              E.F.G.    H.I._.d.d.d.e.f.g.h.K %.%.%.%.%.%.%.%.%.%.%.L J.K.L.M.N.E.                              ",
"                            O.P.Q.R.    (.d.d.d.d.d.S.T.<.[.}.|.%.%.%.%.%.%.%.%.%.U.V.W.X.Y.Z.`.P.O.                            ",
"                             +.+++@+  #+I.d.d.d.d.d.d.$+%++.@.&+%.K K K K K K K K *+=+-+;+>+,+'+.+ +                            ",
"                          )+c !+~+    {+]+^+/+/+(+d.d.d._+:+<+[+}+|+|+|+|+|+|+|+1+2+3+4+5+  6+> !+c )+                          ",
"                          7+8+9+0+    a+b+c+c+d+e+(+d.d.f+g+h+i+j+k+j+l+l+l+l+l+m+n+o+p+      ~+q+8+7+                          ",
"                          r+s+t+u+v+w+x+y+z+z+A+B+C+(+d.d.S.D+E+(+F+e.G+H+H+H+H+I+J+K+G+L+    M+q+s+r+                          ",
"                          N+).O+P+Q+R+S+T+U+V+W+X+Y+Z+`+d.d.d.d.d.d.S. @.@+@+@+@+@@@#@$@      M+q+).N+                          ",
"                          %@&@*@=@-@;@>@,@'@%.)@!@~@{@]@d.d.d.d.d.S.^@/@(@_@:@<@<@[@}@|@      1@2@3@%@                          ",
"                            4@5@6@7@8@9@0@a@2.%.b@c@d@e@d.d.d.d.S.^@f@g@h@i@v.j@k@l@m@n@w o@p@q@r@s@                            ",
"                            t@q+u@7@7@v@z.w@x@y@%.z@A@B@d.d.d.d.C@/@g@D@E@K %.%.F@G@H@I@J@K@L@M@!+t@                            ",
"                              N@O@P@7@8@Q@R@S@T@w.U@V@W@X@Y@Y@Y@Z@`@h@E@$. #2.w..#S@R@Q@+#@###7.$#                              ",
"                              %#&#*#P@7@=#-#;#>#,#'#)#  L+!#~#b.{#]#^#%.&./#(#_#:#<#-#=#7@[#}#|#%#                              ",
"                              1#2#3#4#7@=#5#6#4.7#8#9#            0#a#b#c#d#e#f#<#6#5#=#7@g#h#i#1#                              ",
"                                j#k#).l#7@=#m#n#o#p#              q#r#s#s#t#u#<#n#m#=#7@l#).k#j#                                ",
"                                  v#w#x#y#z#A#B#C#D#              E#F#n#G#G#G#G#H#I#z#y#x#w#v#                                  ",
"                                    J#K#L#M#N#O#P#Q#R#S#T#      U#V#W#X#8@8@8@8@Y#Z#M#L#K#J#                                    ",
"                                      `# $.$.+!++$@$$##$$$%$%$%$&$*$=$-$;$8@8@>$,$'$)$ $`#                                      ",
"                                            !$~$s+{$]$^$/$($($($($_$l.:$<$[$}$|$1$2$                                            ",
"                                            3$4$5$6$7$8$8$9$9$9$9$9$9$0$a$a$a$b$4$3$                                            "};
