/* XPM */
static char * exit_xpm[] = {
"64 64 376 2",
"  	c None",
". 	c #9C9CB8",
"+ 	c #9A9AB7",
"@ 	c #A3A3D2",
"# 	c #A8A8D8",
"$ 	c #8888B7",
"% 	c #9595BF",
"& 	c #9696BC",
"* 	c #A6A6CD",
"= 	c #676796",
"- 	c #9E9ECD",
"; 	c #A7A7D6",
"> 	c #9090BF",
", 	c #7474A3",
"' 	c #A8A8D7",
") 	c #8585B4",
"! 	c #ACACDC",
"~ 	c #8282B1",
"{ 	c #9898C7",
"] 	c #9595C4",
"^ 	c #8484B3",
"/ 	c #A5A5D4",
"( 	c #9A9ACA",
"_ 	c #7373A2",
": 	c #6A6A9A",
"< 	c #AFAFDF",
"[ 	c #9595C3",
"} 	c #9D9DCC",
"| 	c #9797C6",
"1 	c #8E8EBD",
"2 	c #A5A5D5",
"3 	c #9595C0",
"4 	c #9C9CCC",
"5 	c #AAAAD7",
"6 	c #8181AF",
"7 	c #A9A9D9",
"8 	c #8C8CBB",
"9 	c #8F8FBD",
"0 	c #9494C3",
"a 	c #656595",
"b 	c #A6A6D6",
"c 	c #A1A1D1",
"d 	c #8686B6",
"e 	c #A6A6D5",
"f 	c #B7B7E6",
"g 	c #9F9FCF",
"h 	c #7575A4",
"i 	c #8989B8",
"j 	c #5F5F8F",
"k 	c #7C7CAB",
"l 	c #B5B5E5",
"m 	c #9393C2",
"n 	c #AEAEDE",
"o 	c #B1B1E1",
"p 	c #7575A3",
"q 	c #8F8FBE",
"r 	c #8787B7",
"s 	c #8C8CBA",
"t 	c #7B7BAA",
"u 	c #A4A4D3",
"v 	c #B3B3E3",
"w 	c #9C9CCB",
"x 	c #9191C0",
"y 	c #7878A7",
"z 	c #A0A0CF",
"A 	c #ADADDD",
"B 	c #9292C2",
"C 	c #9999C9",
"D 	c #8080AF",
"E 	c #A4A4D4",
"F 	c #7070A0",
"G 	c #8A8AB9",
"H 	c #A0A0D0",
"I 	c #A2A2D2",
"J 	c #ACACDB",
"K 	c #7D7DAC",
"L 	c #8989B9",
"M 	c #B1B1E0",
"N 	c #7F7FAF",
"O 	c #8D8DBD",
"P 	c #8282B2",
"Q 	c #7474A4",
"R 	c #8D8DBB",
"S 	c #8D8DBC",
"T 	c #8B8BBA",
"U 	c #7777A6",
"V 	c #8383B3",
"W 	c #9B9BCA",
"X 	c #9494C4",
"Y 	c #9696C5",
"Z 	c #8888B8",
"` 	c #9696C6",
" .	c #9393C3",
"..	c #9292C1",
"+.	c #8E8EBE",
"@.	c #9A9AC9",
"#.	c #8181B0",
"$.	c #7F7FAE",
"%.	c #9D9DCD",
"&.	c #9595C5",
"*.	c #8B8BBB",
"=.	c #9E9ECE",
"-.	c #9797C7",
";.	c #9090C0",
">.	c #8585B5",
",.	c #7B7BAB",
"'.	c #7A7AAA",
").	c #7E7EAE",
"!.	c #8181B1",
"~.	c #7D7DAD",
"{.	c #7E7EAD",
"].	c #9999C8",
"^.	c #9B9BCB",
"/.	c #9898C8",
"(.	c #8F8FBF",
"_.	c #7A7AA9",
":.	c #8484B4",
"<.	c #8383B2",
"[.	c #7575A5",
"}.	c #6F6F9F",
"|.	c #7272A2",
"1.	c #6D6D9D",
"2.	c #6E6E9E",
"3.	c #8080B0",
"4.	c #7979A8",
"5.	c #6F6F9E",
"6.	c #7272A1",
"7.	c #7777A7",
"8.	c #7676A5",
"9.	c #6C6C9B",
"0.	c #6B6B9B",
"a.	c #7979A9",
"b.	c #8787B6",
"c.	c #7C7CAC",
"d.	c #6C6C9C",
"e.	c #7878A8",
"f.	c #6D6D9C",
"g.	c #8A8ABA",
"h.	c #7373A3",
"i.	c #7171A1",
"j.	c #8C8CBC",
"k.	c #9191C1",
"l.	c #70709F",
"m.	c #7676A6",
"n.	c #8686B5",
"o.	c #6E6E9D",
"p.	c #696999",
"q.	c #A3A3D3",
"r.	c #8989B7",
"s.	c #A2A2D1",
"t.	c #9D9DCB",
"u.	c #9B9BC9",
"v.	c #A1A1D0",
"w.	c #AAAAD9",
"x.	c #6B6B9A",
"y.	c #6A6A99",
"z.	c #585888",
"A.	c #7171A0",
"B.	c #7B7BA9",
"C.	c #7D7DA9",
"D.	c #8D8DB1",
"E.	c #9696B2",
"F.	c #9595B3",
"G.	c #8787AD",
"H.	c #AAAADA",
"I.	c #696998",
"J.	c #AAAAD6",
"K.	c #7C7CA7",
"L.	c #9E9EB0",
"M.	c #B5B5BF",
"N.	c #BBBBC0",
"O.	c #B7B7C0",
"P.	c #BDBDC0",
"Q.	c #B1B1BB",
"R.	c #8C8CA8",
"S.	c #ACACD8",
"T.	c #565686",
"U.	c #5E5E8E",
"V.	c #8888A9",
"W.	c #B5B5BC",
"X.	c #B9B9C0",
"Y.	c #B6B6C0",
"Z.	c #B3B3C0",
"`.	c #C0C0C0",
" +	c #A8A8B4",
".+	c #7E7EAB",
"++	c #7F7FAD",
"@+	c #5E5E8D",
"#+	c #B7B7E7",
"$+	c #ADADDC",
"%+	c #8585A7",
"&+	c #B4B4BE",
"*+	c #BFBFC0",
"=+	c #BCBCC0",
"-+	c #BABAC0",
";+	c #A9A9B7",
">+	c #8080AD",
",+	c #565685",
"'+	c #A9A9D4",
")+	c #A1A1CE",
"!+	c #7A7AA8",
"~+	c #7A7AA7",
"{+	c #AFAFBB",
"]+	c #B8B8C0",
"^+	c #9797AF",
"/+	c #686897",
"(+	c #AFAFD9",
"_+	c #9999C7",
":+	c #7272A0",
"<+	c #B0B0D7",
"[+	c #A6A6D0",
"}+	c #696997",
"|+	c #9494AD",
"1+	c #B7B7BE",
"2+	c #A4A4B7",
"3+	c #9898B0",
"4+	c #8E8EAB",
"5+	c #8181A8",
"6+	c #7474A0",
"7+	c #7E7EAC",
"8+	c #7878A6",
"9+	c #7A7AA3",
"0+	c #8787AA",
"a+	c #9090AB",
"b+	c #9A9AB2",
"c+	c #AEAEBB",
"d+	c #B6B6BE",
"e+	c #7D7DA7",
"f+	c #6D6D9B",
"g+	c #B5B5D9",
"h+	c #A1A1CF",
"i+	c #8E8EBC",
"j+	c #5F5F8D",
"k+	c #666696",
"l+	c #686896",
"m+	c #7F7FA7",
"n+	c #8383AD",
"o+	c #73739F",
"p+	c #636392",
"q+	c #676797",
"r+	c #676795",
"s+	c #626291",
"t+	c #595989",
"u+	c #656594",
"v+	c #666695",
"w+	c #60608F",
"x+	c #9494C2",
"y+	c #9898C6",
"z+	c #9090BD",
"A+	c #9696C3",
"B+	c #9292C0",
"C+	c #595988",
"D+	c #9595C2",
"E+	c #A8A8D6",
"F+	c #606090",
"G+	c #A9A9D8",
"H+	c #646493",
"I+	c #616190",
"J+	c #8080AE",
"K+	c #8686B4",
"L+	c #585887",
"M+	c #60608E",
"N+	c #626290",
"O+	c #535383",
"P+	c #5F5F8B",
"Q+	c #A3A3B8",
"R+	c #8080A4",
"S+	c #5F5F8E",
"T+	c #71719B",
"U+	c #8B8BA6",
"V+	c #A7A7D7",
"W+	c #9F9FCE",
"X+	c #5D5D8C",
"Y+	c #545484",
"Z+	c #505080",
"`+	c #50507F",
" @	c #616191",
".@	c #515181",
"+@	c #535382",
"@@	c #646490",
"#@	c #797999",
"$@	c #7E7EA8",
"%@	c #575786",
"&@	c #525282",
"*@	c #5B5B8B",
"=@	c #B2B2DE",
"-@	c #545483",
";@	c #62628D",
">@	c #8A8AA7",
",@	c #8B8BB9",
"'@	c #9999B0",
")@	c #7F7FA5",
"!@	c #5C5C8B",
"~@	c #A5A5D2",
"{@	c #494979",
"]@	c #555584",
"^@	c #686898",
"/@	c #4E4E7D",
"(@	c #7878A5",
"_@	c #7979A6",
":@	c #626292",
"<@	c #4C4C7B",
"[@	c #636393",
"}@	c #555585",
"|@	c #5F5F8C",
"1@	c #4F4F7E",
"2@	c #4E4E7E",
"3@	c #5C5C8C",
"4@	c #525281",
"5@	c #464676",
"6@	c #7777A5",
"7@	c #7F7FA9",
"8@	c #7979A2",
"9@	c #575787",
"0@	c #9C9CC7",
"a@	c #8A8AA5",
"b@	c #9595AE",
"c@	c #8787A8",
"d@	c #8282AB",
"e@	c #8383B1",
"f@	c #5B5B8A",
"g@	c #474776",
"h@	c #8181AB",
"i@	c #7C7CAA",
"j@	c #5A5A89",
"k@	c #4B4B7A",
"l@	c #6B6B99",
"m@	c #5D5D8B",
"n@	c #666694",
"o@	c #6F6F9D",
"p@	c #646492",
"q@	c #9494C1",
"r@	c #9393C1",
"s@	c #9C9CCA",
"t@	c #7F7FAC",
"u@	c #9191BF",
"v@	c #9F9FCD",
"w@	c #7E7EAA",
"x@	c #71719E",
"y@	c #5E5E8B",
"z@	c #9696AD",
"A@	c #565684",
"B@	c #7777A1",
"C@	c #7D7DAA",
"D@	c #686895",
"E@	c #8585B2",
"F@	c #7373A0",
"G@	c #78789D",
"H@	c #8787A6",
"I@	c #7B7B9C",
"J@	c #7D7DA8",
"K@	c #696996",
"L@	c #8888B6",
"M@	c #7474A1",
"N@	c #636391",
"O@	c #7D7DAB",
"P@	c #656593",
"Q@	c #6E6E9B",
"R@	c #8787B5",
"S@	c #70709D",
"T@	c #7B7BA8",
"U@	c #6B6B98",
"V@	c #7878A0",
"W@	c #8383A4",
"X@	c #7373A1",
"Y@	c #8D8DA9",
"Z@	c #9B9BB0",
"`@	c #64648E",
" #	c #73739E",
".#	c #8282B0",
"+#	c #8585B3",
"@#	c #7474A2",
"##	c #ADADDB",
"$#	c #A7A7D1",
"%#	c #8585AE",
"&#	c #A4A4CE",
"                                                              . +                                                               ",
"                                                      @ # $ % & * = - ; >                                                       ",
"                                                    , ' ) ! ~ { ] ^ / > (                                                       ",
"                                                      _ : < [ } } | ]                                                           ",
"                                                        1 2 3 4 5 6 7                                                           ",
"                                                      8 < 9 ) 0 0 a b c                                                         ",
"                                                  d e f g   h ] i j k < l {                                                     ",
"                                            m g i n o m   p q ^ r s   t u v w x ( |                                             ",
"                                      y z n A B g C D     ' c b E c 0   F G H 0 I J o i                                         ",
"                                K @ { L M q N O P Q y ^ R O q 0 > x S T D _ U S ~ V b W X - |                                   ",
"                                Y i Z D ` |  .] W B B q ..1 +.> q +.+...x m Y @. .B w 8 #.Z ] $.                                ",
"                            ^ 0 %.&...*.T m &.C =.w -.Y ..;.>.~ ~ G .. .Y ( %.%.`  .x G q ..} { q                               ",
"                        T | X B  .4 C 0 i #.,.'.t ).K ~ ~ !.$.).).D ~ ~ $.~.K t '.{.~ S ].^./.B m ` > )                         ",
"                      k (.%.@.G _.y $.:.<.<.k [._ }.|.$.1.K L 2.3.>.}.4.'.5.6., 7.$.V V <.K 8.3.x ^.( *.9.                      ",
"                      ~ D t K #.{.t 4.7.0.Z ).8.-.r a./.#.b.C 4.O ^.|... .|.B ;.2.L c.d.e.,.k N D k t <.U                       ",
"                      8.^ k f.e.g.h.'.-.k i -.6.+.-.i.+.j.7.-.<.B k.6.` ).~ /.{.) /.Q 1 > l.D r 2._ D ^                         ",
"                        m.k.n.F (. .6.*.k.|./.^ <.( <.) i o.G ~ i :.6.+.h.&.].6.m > 8./.y !.-.P |.;.L p.                        ",
"                          y &.8 h -.j.$.*.}.D h o.h k ~ G T m q.%.x b.r.D 4.|.2.t y c.> Q -.+.|.` j.                            ",
"                            k ` U U m.$...x @ g c A I c } { { s.t.u.| v.%.' # q.2 @.] i t h 6.L q                               ",
"                              l.).=.7 E  .G ^ _.m.h.h.e.<.G m ( /.B b.~.U 6.h.7.~.) ..{ w.@ B e.                                ",
"                              x.( 8 k 7.N g.> X g ^.g { X { Z ) ) 1 /.] -.I C %.;.x <.K 4.D  .8                                 ",
"                                0.i.1 q.z T 4.p.o.: t ~ 9.h <.Z d $.2._ D y x.y.5.).] q.=.#.f.y.                                ",
"                                z.c.( e u &.A.B.s.8 n.'.,.C.D.E.F.G.y ~.c.T x } y.P w H.=. .:                                   ",
"                                  I.*.q.@ O y.B J.y N K.L.M.N.O.P.O.Q.R.{.4.S S.t h ` # ^.).                                    ",
"                                  T.x v v ~ U.T _.:.V.W.X.P.Y.O.P.Z.`.O. +.+D D ++@+4 #+$+,                                     ",
"                                    y A @ = o.G ~.%+&+N.O.*+X.O.=+-+X.P.O.;+>+e.S ,+n.n W =                                     ",
"                                  x.r.'+)+k !+4.~+{+=+X.-+O.Z.Y.Y.]+O.O.P.X.^+~.<./+1 (+_+4.                                    ",
"                                  :+t.<+[+] }+d |+1+2+3+4+5+6+7+8+9+0+a+b+c+d+e+t f+' g+h+i+j+                                  ",
"                                  k+| z /.G l+8.m+++'._.m.h.[.K _._ Q y '.c.n+o+4.p+{ / ` Z z.                                  ",
"                                  q+] v.C i r+t 4.0.6.y.a., 8.).t |.y , x.A.l.t e.s+/./ { n.t+                                  ",
"                                  /+{ g @.i @+: _ a.!.r ;.%.=.I g H /.j.d ,.y o.a u+Y ; -.i t+                                  ",
"                                  v+..c -.$ w+$.^ $ > > x+0 y+z+A+] ] ..B+i i ~ h w+/.@ ` ^ C+                                  ",
"                                  a | H 4 $ w+:.;.Y  .k.&.%.u D+E+H (  . .B X O y F+Y G+/.b.z.                                  ",
"                                  H+..- =.1 I+F m.l.h._ F J+K+) 0 {.Q i.6.Q 6.A.2.v+=.b  .<.L+                                  ",
"                                  /+/.g { b.M+i.Q 1 4.y $ #.b.) 0 t n.d p #.Z x.5.I+&.q./.L t+                                  ",
"                                  v+] I -.T N+F k O O+P+r <.i V &.y O ~+Q+R+B 0.2.H+@.E ` n.z.                                  ",
"                                  k+] g w *.S+}.k +.l+T+S V b.V B t S $.U+C.B x.0.H+@.b ` n.C+                                  ",
"                                  q+] I C n.I+F t #.N $.#.D $ :. .$.K ~ K !.<.l.}.I+&.V+-.n.t+                                  ",
"                                  = X ^.` i M+2.'.$.t t $.) <.) 0 _.#.K k ,.c., f.I+/.=.Y n.t+                                  ",
"                                  v+O W+w i X+5.,.k K t ,.$ K+^ 0 {.~ t ,.K {.6.x.s+C b B D C+                                  ",
"                                  Y+d.) {.u+Z+}.[.D t ,.k $.i V 0 $.t t k ,.3.1.: `+}.i e. @.@                                  ",
"                                  C+~.H C h.+@l.e.k.S+@@j.^ ^ ^ k.4.+.D #@$@+.d.: %@V q. .1.&@                                  ",
"                                  *@y =@q |.-@l.).G ;@>@L n.,@P 0 K q A.'@)@m f.: !@t ~@u.2.O+                                  ",
"                                  *@,+].{@w+]@5.U i t a.:.K n.n.0 k $.n._ P Z ^@x.!@/@(@_@:@O+                                  ",
"                                  C+s+h <@[@}@2.e.4.Q h y k <.V 0 h _.U h.m.a.6.: Y+ @|@^@p+O+                                  ",
"                                  T.@+p. @1@}@}.K V #.).V 8 ) V  .$.Z #.#.D ~ h x.2@X+3@h.`+O+                                  ",
"                                  L+@+)., %@}@}._.Q U U , ^ i <.B ) y U U [.U , : 4@I+y '.%@O+                                  ",
"                                  T.-@q w+5@}@F e. .6@7@;.) ^ n. .4.+.n.8@P ;.9.0.2@4@U ).<@O+                                  ",
"                                  9@p+0@j C+}@i.~.j.+@a@:.) i P 0 t S 9.b@c@X x.d.2@[@d@e@*@O+                                  ",
"                                  f@X+-@g@[@]@1.k k.!+h@;.~ b.^  .i@*.$ 8@:. .I.I.C+j@/@k@a O+                                  ",
"                                  *@w+6.l@p+]@i.'.4.8.8.4.{.n.<.B K a.y , y t , d.!@m@h n@H+O+                                  ",
"                                  z.!.I w m.4@1.~.^ #.$.V S ) ^  .D Z #.!.D ~ [.I.%@b.2 ` l.&@                                  ",
"                                  o.T I W+<.n@F y _ m.8.h.~ ) ) 0 {.y Q h 7.h A.1.o@> E w {.p@                                  ",
"                                  q@_+x r@s@t@F _ G y U ^ $.$ ^ 0 t ~ <._ ).) x.1.A+| u@x+v@w@                                  ",
"                                  e@U h.k y x@}.t +.y@z@$ ~ ) V B y O h A@B@k.0.: C@k l.$.~ D@                                  ",
"                                  E@_ n.).K F@}.c.O G@H@8 ^ $ V m k O _.I@J@B 0.: .+U r c.$ K@                                  ",
"                                  !+L@4.D <.l@}.4.#.$.{.3.{.$ ) 0 $.,.!.t #.~ 1.: M@S e.<.n.N@                                  ",
"                                  O@8.Q t 8.f+2.,.N t t N ) <.:.0 _.~ ~.k c.{.Q : 6@k 6.~.{.P@                                  ",
"                                  .+#.{.#.#.Q@2._.c.K _.k b.K+V 0 k ~ t t k {.i.: 6@b.~.<.R@P@                                  ",
"                                  6 k k ^ _.S@}.y $.K ~.k ~ i V 0 #.k ,.{.K 3.l.: T@<.y b.~ r+                                  ",
"                                  4.t V {.D U@l.e.k.V@W@1 ) V ) k._.q ~ }@y O d.: X@D >.K ) N@                                  ",
"                                  R@~ t D n.F@l.{.G Y@Z@Z n.T ~ 0 K +.l.`@ # .d.x.E@<.4.P 1 K@                                  ",
"                                  ,@.#$.$.+#T@o.e.S K t Z {.n.n.0 t P i @#) j.^@/+,@D $.$.R@.+                                  ",
"                                  ##W+} } s.$#A.8.Q A.A., e.<.V 0 Q 8._ }.|.8.F %#! - } } u &#                                  "};
