/* XPM */
static char * player_xpm[] = {
"64 64 486 2",
"  	c None",
". 	c #314A31",
"+ 	c #265810",
"@ 	c #215718",
"# 	c #2F4B2E",
"$ 	c #393A31",
"% 	c #2F4B31",
"& 	c #3E8631",
"* 	c #45A727",
"= 	c #3FA42C",
"- 	c #317C2D",
"; 	c #30512F",
"> 	c #346C31",
", 	c #549F31",
"' 	c #75C431",
") 	c #7ABF31",
"! 	c #559331",
"~ 	c #358531",
"{ 	c #294B31",
"] 	c #4F7A31",
"^ 	c #FFFFFF",
"/ 	c #4F9931",
"( 	c #405931",
"_ 	c #205331",
": 	c #597431",
"< 	c #226C31",
"[ 	c #699631",
"} 	c #237231",
"| 	c #6EA231",
"1 	c #3E3731",
"2 	c #226631",
"3 	c #6C8E31",
"4 	c #6E4631",
"5 	c #345631",
"6 	c #597631",
"7 	c #205B31",
"8 	c #577631",
"9 	c #5F7D31",
"0 	c #349520",
"a 	c #49B531",
"b 	c #56D031",
"c 	c #1A4031",
"d 	c #1A6831",
"e 	c #3A8131",
"f 	c #5A9731",
"g 	c #5FAD31",
"h 	c #51C031",
"i 	c #48D205",
"j 	c #54E509",
"k 	c #55ED05",
"l 	c #223A31",
"m 	c #195F31",
"n 	c #11851F",
"o 	c #2CA923",
"p 	c #44C42B",
"q 	c #4ED529",
"r 	c #51E219",
"s 	c #57EF02",
"t 	c #5FFA00",
"u 	c #61FC00",
"v 	c #263031",
"w 	c #234E31",
"x 	c #137B1B",
"y 	c #26AA15",
"z 	c #3FCF0C",
"A 	c #4FE505",
"B 	c #54E908",
"C 	c #51E50C",
"D 	c #52E808",
"E 	c #5AF401",
"F 	c #61FD00",
"G 	c #213931",
"H 	c #18641F",
"I 	c #259E14",
"J 	c #3FCE0C",
"K 	c #54EB04",
"L 	c #5CF405",
"M 	c #56E80E",
"N 	c #47D412",
"O 	c #40D20D",
"P 	c #4DE702",
"Q 	c #253031",
"R 	c #204731",
"S 	c #208222",
"T 	c #3CBF15",
"U 	c #53E706",
"V 	c #5FF901",
"W 	c #61FB03",
"X 	c #5AF00A",
"Y 	c #4CDE0D",
"Z 	c #41D509",
"` 	c #4AE301",
" .	c #5EF900",
"..	c #283031",
"+.	c #265A31",
"@.	c #319E31",
"#.	c #49D518",
"$.	c #5CF404",
"%.	c #62FD00",
"&.	c #63FF00",
"*.	c #61FB02",
"=.	c #5AF304",
"-.	c #52EB02",
";.	c #54ED00",
">.	c #60FB00",
",.	c #303331",
"'.	c #346831",
").	c #39B131",
"!.	c #4EE01C",
"~.	c #5EF803",
"{.	c #63FE00",
"].	c #413731",
"^.	c #496F31",
"/.	c #43B731",
"(.	c #50E223",
"_.	c #5EF804",
":.	c #4A3731",
"<.	c #546531",
"[.	c #46AA31",
"}.	c #4FDB27",
"|.	c #5DF605",
"1.	c #423231",
"2.	c #495331",
"3.	c #3C9031",
"4.	c #46CB29",
"5.	c #56ED06",
"6.	c #322E31",
"7.	c #364431",
"8.	c #2D7731",
"9.	c #36B231",
"0.	c #47D814",
"a.	c #57F102",
"b.	c #60FC00",
"c.	c #2A2D31",
"d.	c #293831",
"e.	c #268C31",
"f.	c #33B928",
"g.	c #46DA0C",
"h.	c #5FF902",
"i.	c #61FC01",
"j.	c #272E31",
"k.	c #272F31",
"l.	c #294231",
"m.	c #266D31",
"n.	c #249931",
"o.	c #2EB619",
"p.	c #42CF12",
"q.	c #4EE00D",
"r.	c #51E905",
"s.	c #51EB01",
"t.	c #292E31",
"u.	c #2E3D31",
"v.	c #2A5D31",
"w.	c #227F31",
"x.	c #1C9225",
"y.	c #26A41F",
"z.	c #30B61A",
"A.	c #34C312",
"B.	c #34C90D",
"C.	c #2B2F31",
"D.	c #2F3831",
"E.	c #2F4D31",
"F.	c #286831",
"G.	c #18772A",
"H.	c #0E8324",
"I.	c #109021",
"J.	c #139C1E",
"K.	c #14A21C",
"L.	c #13A21C",
"M.	c #2E3131",
"N.	c #2F3931",
"O.	c #2B4F30",
"P.	c #175D25",
"Q.	c #046921",
"R.	c #007522",
"S.	c #008023",
"T.	c #008422",
"U.	c #008421",
"V.	c #2D3031",
"W.	c #2B3831",
"X.	c #153D1C",
"Y.	c #034B17",
"Z.	c #005D1C",
"`.	c #026A20",
" +	c #077021",
".+	c #0C6F22",
"++	c #1B211D",
"@+	c #032808",
"#+	c #054015",
"$+	c #195327",
"%+	c #275A31",
"&+	c #2D5631",
"*+	c #222C24",
"=+	c #07290A",
"-+	c #1B3B25",
";+	c #313F31",
">+	c #403A31",
",+	c #4F3A31",
"'+	c #503A31",
")+	c #2C3431",
"!+	c #1E3A24",
"~+	c #164824",
"{+	c #2E4D31",
"]+	c #4A4731",
"^+	c #283731",
"/+	c #244531",
"(+	c #115023",
"_+	c #265C31",
":+	c #485731",
"<+	c #FFD1C4",
"[+	c #FFD3C7",
"}+	c #293B31",
"|+	c #245531",
"1+	c #126526",
"2+	c #186831",
"3+	c #335931",
"4+	c #FFE7E1",
"5+	c #293931",
"6+	c #255C31",
"7+	c #147C21",
"8+	c #0B831E",
"9+	c #236F31",
"0+	c #4C5431",
"a+	c #FFE1D8",
"b+	c #273131",
"c+	c #255231",
"d+	c #137A1F",
"e+	c #0D941B",
"f+	c #1E9131",
"g+	c #336931",
"h+	c #FFFEFD",
"i+	c #294F31",
"j+	c #1D7717",
"k+	c #149713",
"l+	c #129D21",
"m+	c #218531",
"n+	c #495B31",
"o+	c #274831",
"p+	c #368731",
"q+	c #31A805",
"r+	c #26B10D",
"s+	c #1A9B26",
"t+	c #256C31",
"u+	c #FFFAF9",
"v+	c #283E31",
"w+	c #2E7231",
"x+	c #40B21A",
"y+	c #45D002",
"z+	c #35C30B",
"A+	c #29982E",
"B+	c #2F5831",
"C+	c #FFD0C8",
"D+	c #275931",
"E+	c #359E28",
"F+	c #48D200",
"G+	c #4EE400",
"H+	c #3CCA10",
"I+	c #359431",
"J+	c #485331",
"K+	c #FFE1DC",
"L+	c #287B31",
"M+	c #40C018",
"N+	c #52E600",
"O+	c #50E900",
"P+	c #3DCA13",
"Q+	c #3C9431",
"R+	c #655831",
"S+	c #FFEFEB",
"T+	c #1D5531",
"U+	c #359F2E",
"V+	c #4CD60B",
"W+	c #56ED00",
"X+	c #4CE400",
"Y+	c #35C60E",
"Z+	c #3B9831",
"`+	c #207431",
" @	c #34B613",
".@	c #4EE102",
"+@	c #3CD306",
"@@	c #23BD07",
"#@	c #359F31",
"$@	c #228031",
"%@	c #35C011",
"&@	c #4DE302",
"*@	c #49DB0D",
"=@	c #30C211",
"-@	c #13B208",
";@	c #309F31",
">@	c #718231",
",@	c #FFEDE4",
"'@	c #217631",
")@	c #34B815",
"!@	c #4DDF08",
"~@	c #4EDE11",
"{@	c #3AC516",
"]@	c #1DAB10",
"^@	c #2D9231",
"/@	c #626D31",
"(@	c #FFDBCD",
"_@	c #FFF0EB",
":@	c #235F31",
"<@	c #2FA01C",
"[@	c #49D10F",
"}@	c #51E10F",
"|@	c #44CE13",
"1@	c #27A113",
"2@	c #287631",
"3@	c #484E31",
"4@	c #FFD7CA",
"5@	c #FFE3DA",
"6@	c #FFE3D8",
"7@	c #274431",
"8@	c #2C792E",
"9@	c #35A818",
"0@	c #3EC411",
"a@	c #37B90D",
"b@	c #208B0E",
"c@	c #1D602A",
"d@	c #324831",
"e@	c #2A3431",
"f@	c #294831",
"g@	c #27712C",
"h@	c #1E8913",
"i@	c #19870C",
"j@	c #0D700E",
"k@	c #137121",
"l@	c #247231",
"m@	c #395C31",
"n@	c #554631",
"o@	c #2B3431",
"p@	c #284031",
"q@	c #205028",
"r@	c #095411",
"s@	c #056A15",
"t@	c #0F8E19",
"u@	c #1D9A2C",
"v@	c #277F31",
"w@	c #3B3631",
"x@	c #3D2B31",
"y@	c #402A31",
"z@	c #422A31",
"A@	c #2C3031",
"B@	c #2A3531",
"C@	c #104917",
"D@	c #057A17",
"E@	c #0FA115",
"F@	c #12A818",
"G@	c #179125",
"H@	c #226D31",
"I@	c #264531",
"J@	c #2A3031",
"K@	c #302B31",
"L@	c #362B31",
"M@	c #313531",
"N@	c #235C17",
"O@	c #158F12",
"P@	c #13AF0F",
"Q@	c #12B40E",
"R@	c #0CA217",
"S@	c #0D821E",
"T@	c #1B5A22",
"U@	c #293829",
"V@	c #302F31",
"W@	c #303031",
"X@	c #2F3031",
"Y@	c #503731",
"Z@	c #526110",
"`@	c #3B960F",
" #	c #1DB30C",
".#	c #17BC07",
"+#	c #12B010",
"@#	c #248F18",
"##	c #416115",
"$#	c #4F3114",
"%#	c #492D31",
"&#	c #262F31",
"*#	c #222E31",
"=#	c #673631",
"-#	c #73520A",
";#	c #638312",
">#	c #51A30F",
",#	c #59B205",
"'#	c #65AA0A",
")#	c #6F8A13",
"!#	c #785A10",
"~#	c #762E1A",
"{#	c #5B2D31",
"]#	c #633231",
"^#	c #7F380C",
"/#	c #8D5D0F",
"(#	c #947B0B",
"_#	c #A48D04",
":#	c #B68D05",
"<#	c #B9770A",
"[#	c #A75205",
"}#	c #853220",
"|#	c #563031",
"1#	c #3A3031",
"2#	c #683231",
"3#	c #96300B",
"4#	c #BA4705",
"5#	c #CC5903",
"6#	c #DA6801",
"7#	c #E56D01",
"8#	c #DD6102",
"9#	c #BE4600",
"0#	c #8E301F",
"a#	c #552F31",
"b#	c #603131",
"c#	c #933625",
"d#	c #C04105",
"e#	c #E05501",
"f#	c #EE5F00",
"g#	c #F46400",
"h#	c #F46300",
"i#	c #E55700",
"j#	c #C73E00",
"k#	c #9E2A1C",
"l#	c #692D31",
"m#	c #4F2E31",
"n#	c #8A3631",
"o#	c #BC3C07",
"p#	c #E15401",
"q#	c #F46100",
"r#	c #FB6600",
"s#	c #FC6700",
"t#	c #F86400",
"u#	c #EA5A00",
"v#	c #D34800",
"w#	c #AE3B1A",
"x#	c #7A3331",
"y#	c #5A2F31",
"z#	c #9D3021",
"A#	c #D14A00",
"B#	c #F16500",
"C#	c #FC7100",
"D#	c #FE7400",
"E#	c #FE7200",
"F#	c #F86A00",
"G#	c #EB6100",
"H#	c #D75B00",
"I#	c #B8561A",
"J#	c #864431",
"K#	c #562E31",
"L#	c #983928",
"M#	c #CE5800",
"N#	c #F07F00",
"O#	c #FB9500",
"P#	c #FD9C00",
"Q#	c #FB9300",
"R#	c #F37F00",
"S#	c #E36E00",
"T#	c #CE6900",
"U#	c #B1671F",
"V#	c #834E31",
"W#	c #432E31",
"X#	c #7B3D31",
"Y#	c #B56417",
"Z#	c #DC9403",
"`#	c #EDB700",
" $	c #F0C200",
".$	c #ECB200",
"+$	c #E29400",
"@$	c #D27C00",
"#$	c #B86E0F",
"$$	c #966331",
"%$	c #664431",
"&$	c #4E3931",
"*$	c #896331",
"=$	c #AE8B09",
"-$	c #C1B000",
";$	c #C5BC00",
">$	c #C0AB00",
",$	c #B88C00",
"'$	c #AC7300",
")$	c #926327",
"!$	c #624431",
"~$	c #4D3E31",
"{$	c #5C4A10",
"]$	c #645C01",
"^$	c #666300",
"/$	c #635900",
"($	c #5F4800",
"_$	c #5A3A00",
":$	c #534131",
"<$	c #3D3431",
"                                                                                                                                ",
"                                                                                                                                ",
"                                                                                                                                ",
"                                                                                                                                ",
"                                                      . + @ # $ $ # @ + .                                                       ",
"                                                    % & * = - ; ; - = * & %                                                     ",
"                                                    > , ' ) ! ~ ~ ! ) ' , >                                                     ",
"                                                  { ]   ^ ^   / /   ^ ^   ] {                                                   ",
"                                                  (   ^ ^ ^ ^     ^ ^ ^ ^   (                                                   ",
"                                                _ : ^ ^ ^ ^ ^ ^ ^ ^ ^ ^ ^ ^ : _                                                 ",
"                                                < [ ^ ^       ^ ^       ^ ^ [ <                                                 ",
"                                                } | ^ ^   1   ^ ^   1   ^ ^ | }                                                 ",
"                                                2 3 ^ ^ 4 5 6 ^ ^ 6 5 4 ^ ^ 3 2                                                 ",
"                                                7 8 ^ ^ 9 0 a b b a 0 9 ^ ^ 8 7                                                 ",
"                                              c d e f g h i j k k j i h g f e d c                                               ",
"                                            l m n o p q r s t u u t s r q p o n m l                                             ",
"                                          v w x y z A B C D E F F E D C B A z y x w v                                           ",
"                                          G H I J K L M N O P t t P O N M L K J I H G                                           ",
"                                        Q R S T U V W X Y Z `  . .` Z Y X W V U T S R Q                                         ",
"                                        ..+.@.#.$.%.&.*.=.-.;.>.>.;.-.=.*.&.%.$.#.@.+...                                        ",
"                                        ,.'.).!.~.{.&.&.u t t %.%.t t u &.&.{.~.!.).'.,.                                        ",
"                                        ].^./.(._.{.&.&.&.{.{.&.&.{.{.&.&.&.{._.(./.^.].                                        ",
"                                        :.<.[.}.|.{.&.&.&.&.&.&.&.&.&.&.&.&.{.|.}.[.<.:.                                        ",
"                                        1.2.3.4.5.>.&.&.&.&.&.&.&.&.&.&.&.&.>.5.4.3.2.1.                                        ",
"                                        6.7.8.9.0.a.b.&.&.&.&.&.&.&.&.&.&.b.a.0.9.8.7.6.                                        ",
"                                        c.d.+.e.f.g.s h.i.u u u u u u i.h.s g.f.e.+.d.c.                                        ",
"                                        j.k.l.m.n.o.p.q.r.s.s.s.s.s.s.r.q.p.o.n.m.l.k.j.                                        ",
"                                          t.u.v.w.x.y.z.A.B.B.B.B.B.B.A.z.y.x.w.v.u.t.                                          ",
"                                          C.D.E.F.G.H.I.J.K.L.L.L.L.K.J.I.H.G.F.E.D.C.                                          ",
"                                            M.N.O.P.Q.R.S.T.U.U.U.U.T.S.R.Q.P.O.N.M.                                            ",
"                                              V.W.X.Y.Z.`. +.+.+.+.+ +`.Z.Y.X.W.V.                                              ",
"                                                C.++@+#+$+%+&+&+&+&+%+$+#+@+++C.                                                ",
"                                                V.*+=+-+;+>+,+'+'+,+>+;+-+=+*+V.                                                ",
"                                                )+!+~+{+]+            ]+{+~+!+)+                                                ",
"                                              ^+/+(+_+:+    <+[+[+<+    :+_+(+/+^+                                              ",
"                                            }+|+1+2+3+    4+^ ^ ^ ^ 4+    3+2+1+|+}+                                            ",
"                                          5+6+7+8+9+0+  a+^ ^ ^ ^ ^ ^ a+  0+9+8+7+6+5+                                          ",
"                                        b+c+d+e+f+g+    h+^ ^ ^ ^ ^ ^ h+    g+f+e+d+c+b+                                        ",
"                                        i+j+k+l+m+n+  a+^ ^ ^ ^ ^ ^ ^ ^ a+  n+m+l+k+j+i+                                        ",
"                                      o+p+q+r+s+t+    u+^ ^ ^ ^ ^ ^ ^ ^ u+    t+s+r+q+p+o+                                      ",
"                                    v+w+x+y+z+A+B+  C+^ ^ ^ ^ ^ ^ ^ ^ ^ ^ C+  B+A+z+y+x+w+v+                                    ",
"                                    D+E+F+G+H+I+J+  K+^ ^ ^ ^ ^ ^ ^ ^ ^ ^ K+  J+I+H+G+F+E+D+                                    ",
"                                    L+M+N+O+P+Q+R+  S+^ ^ ^ ^ ^ ^ ^ ^ ^ ^ S+  R+Q+P+O+N+M+L+                                    ",
"                                  T+U+V+W+X+Y+Z+    h+^ ^ ^ ^ ^ ^ ^ ^ ^ ^ h+    Z+Y+X+W+V+U+T+                                  ",
"                                  `+ @.@A +@@@#@    h+^ ^ ^ ^ ^ ^ ^ ^ ^ ^ h+    #@@@+@A .@ @`+                                  ",
"                                  $@%@&@*@=@-@;@>@  ,@^ ^ ^ ^ ^ ^ ^ ^ ^ ^ ,@  >@;@-@=@*@&@%@$@                                  ",
"                                  '@)@!@~@{@]@^@/@  (@_@^ ^ ^ ^ ^ ^ ^ ^ _@(@  /@^@]@{@~@!@)@'@                                  ",
"                                  :@<@[@}@|@1@2@3@    4@a+5@6@6@6@6@5@a+4@    3@2@1@|@}@[@<@:@                                  ",
"                                  7@8@9@0@a@b@c@d@                            d@c@b@a@0@9@8@7@                                  ",
"                                  e@f@g@h@i@j@k@l@m@n@                    n@m@l@k@j@i@h@g@f@e@                                  ",
"                                    o@p@q@r@s@t@u@v@5 w@x@y@y@z@z@y@y@x@w@5 v@u@t@s@r@q@p@o@                                    ",
"                                      A@B@C@D@E@F@G@H@I@J@K@L@L@L@L@K@J@I@H@G@F@E@D@C@B@A@                                      ",
"                                        M@N@O@P@Q@R@S@T@U@V@W@X@X@W@V@U@T@S@R@Q@P@O@N@M@                                        ",
"                                        Y@Z@`@ #.#+#@###$#%#&#*#*#&#%#$###@#+#.# #`@Z@Y@                                        ",
"                                        =#-#;#>#,#'#)#!#~#{#j.    j.{#~#!#)#'#,#>#;#-#=#                                        ",
"                                        ]#^#/#(#_#:#<#[#}#|#        |#}#[#<#:#_#(#/#^#]#                                        ",
"                                      1#2#3#4#5#6#7#8#9#0#a#        a#0#9#8#7#6#5#4#3#2#1#                                      ",
"                                      b#c#d#e#f#g#h#i#j#k#l#        l#k#j#i#h#g#f#e#d#c#b#                                      ",
"                                    m#n#o#p#q#r#s#t#u#v#w#x#        x#w#v#u#t#s#r#q#p#o#n#m#                                    ",
"                                    y#z#A#B#C#D#E#F#G#H#I#J#        J#I#H#G#F#E#D#C#B#A#z#y#                                    ",
"                                    K#L#M#N#O#P#Q#R#S#T#U#V#        V#U#T#S#R#Q#P#O#N#M#L#K#                                    ",
"                                    W#X#Y#Z#`# $.$+$@$#$$$%$        %$$$#$@$+$.$ $`#Z#Y#X#W#                                    ",
"                                      &$*$=$-$;$>$,$'$)$!$            !$)$'$,$>$;$-$=$*$&$                                      ",
"                                        ~${$]$^$/$($_$:$<$            <$:$_$($/$^$]${$~$                                        "};
