/* XPM */
static char * suelo2_xpm[] = {
"64 64 210 2",
"  	c #D0D8B8",
". 	c #ABB6A6",
"+ 	c #A2AD9E",
"@ 	c #A1AA98",
"# 	c #A0AA96",
"$ 	c #A0A996",
"% 	c #B0BEAA",
"& 	c #7F9094",
"* 	c #687881",
"= 	c #637275",
"- 	c #627273",
"; 	c #647374",
"> 	c #657374",
", 	c #9FAEA4",
"' 	c #617686",
") 	c #3C566E",
"! 	c #385167",
"~ 	c #3C566B",
"{ 	c #4E6373",
"] 	c #576A77",
"^ 	c #8F9E9D",
"/ 	c #566B7D",
"( 	c #395267",
"_ 	c #3F576E",
": 	c #4B637B",
"< 	c #667987",
"[ 	c #73838D",
"} 	c #72838C",
"| 	c #859599",
"1 	c #4F6476",
"2 	c #3C5467",
"3 	c #475F76",
"4 	c #5C7287",
"5 	c #6E808D",
"6 	c #74848D",
"7 	c #849498",
"8 	c #4D6171",
"9 	c #40586D",
"0 	c #4E667E",
"a 	c #6B7F8F",
"b 	c #677985",
"c 	c #5A6C77",
"d 	c #5A6D78",
"e 	c #859499",
"f 	c #4D6170",
"g 	c #465E74",
"h 	c #597085",
"i 	c #70828F",
"j 	c #5C6E7A",
"k 	c #3D5465",
"l 	c #3F5667",
"m 	c #4E6374",
"n 	c #4C647C",
"o 	c #687C8D",
"p 	c #687A86",
"q 	c #3B5469",
"r 	c #3E566C",
"s 	c #3D566B",
"t 	c #3E576C",
"u 	c #3A5369",
"v 	c #506578",
"w 	c #516981",
"x 	c #748693",
"y 	c #5D707B",
"z 	c #40576B",
"A 	c #445C74",
"B 	c #4A6178",
"C 	c #4C6378",
"D 	c #496077",
"E 	c #4C6278",
"F 	c #4C6379",
"G 	c #475E74",
"H 	c #516679",
"I 	c #536B83",
"J 	c #778994",
"K 	c #5B6D7A",
"L 	c #3D566D",
"M 	c #49617A",
"N 	c #596E83",
"O 	c #637686",
"P 	c #627686",
"Q 	c #617485",
"R 	c #516880",
"S 	c #607385",
"T 	c #647787",
"U 	c #576B7E",
"V 	c #3C556D",
"W 	c #516579",
"X 	c #778894",
"Y 	c #5C6F7E",
"Z 	c #415972",
"` 	c #4F677F",
" .	c #697C8D",
"..	c #7A8A93",
"+.	c #798A93",
"@.	c #768892",
"#.	c #5F7588",
"$.	c #758792",
"%.	c #798A94",
"&.	c #657787",
"*.	c #405971",
"=.	c #5D7080",
"-.	c #425B74",
";.	c #586E83",
">.	c #7B8C95",
",.	c #8E9E9D",
"'.	c #8D9D9D",
").	c #8B9B9C",
"!.	c #7B8D94",
"~.	c #8A9B9C",
"{.	c #87979B",
"].	c #6A7C8A",
"^.	c #415A73",
"/.	c #425B73",
"(.	c #637687",
"_.	c #8B9C9C",
":.	c #9FAFA4",
"<.	c #9EAEA4",
"[.	c #9DADA3",
"}.	c #98A9A0",
"|.	c #90A09E",
"1.	c #697B8A",
"2.	c #95A5A0",
"3.	c #A8B8A8",
"4.	c #A7B7A8",
"5.	c #697C8A",
"6.	c #5D707F",
"7.	c #6A7C8B",
"8.	c #97A7A1",
"9.	c #AABAA9",
"0.	c #97A6A1",
"a.	c #607382",
"b.	c #455D75",
"c.	c #667887",
"d.	c #90A09D",
"e.	c #A2B2A4",
"f.	c #A1B1A4",
"g.	c #A1B1A3",
"h.	c #A1B2A4",
"i.	c #6A7E8F",
"j.	c #51667A",
"k.	c #55697D",
"l.	c #76878D",
"m.	c #859693",
"n.	c #849592",
"o.	c #829390",
"p.	c #839491",
"q.	c #849593",
"r.	c #839390",
"s.	c #526A82",
"t.	c #5D748A",
"u.	c #718390",
"v.	c #4E6376",
"w.	c #5B6F7E",
"x.	c #637783",
"y.	c #617580",
"z.	c #5E717C",
"A.	c #5F737E",
"B.	c #637682",
"C.	c #627682",
"D.	c #5F727D",
"E.	c #506579",
"F.	c #566E87",
"G.	c #6C7F90",
"H.	c #75868D",
"I.	c #738487",
"J.	c #738589",
"K.	c #75878B",
"L.	c #748589",
"M.	c #728386",
"N.	c #728487",
"O.	c #74878B",
"P.	c #74868A",
"Q.	c #728387",
"R.	c #496179",
"S.	c #546C85",
"T.	c #5F758B",
"U.	c #859797",
"V.	c #98A89D",
"W.	c #97A79D",
"X.	c #97A89E",
"Y.	c #97A79E",
"Z.	c #849499",
"`.	c #53687D",
" +	c #445D75",
".+	c #4F6880",
"++	c #556D86",
"@+	c #839597",
"#+	c #5A6F84",
"$+	c #435C75",
"%+	c #48617A",
"&+	c #526A84",
"*+	c #6E828F",
"=+	c #88999A",
"-+	c #91A09E",
";+	c #8C9B9C",
">+	c #6D818E",
",+	c #5C707E",
"'+	c #5C707F",
")+	c #647989",
"!+	c #6A7F8E",
"~+	c #7C8E95",
"{+	c #89999B",
"]+	c #88989B",
"^+	c #8B9D9B",
"/+	c #849693",
"(+	c #879998",
"_+	c #889A99",
":+	c #8FA09D",
"<+	c #AEB9A7",
"                                                                                                                                ",
"                                                                                                                                ",
"                                                                                                                                ",
"                                                                                                                                ",
"    . + @ # $ $ $ $ $ $ $ $ $ $ $ $ $ $ $ $ $ $ $ $ # @ + .         . + @ # $ $ $ $ $ $ $ $ $ $ $ $ $ $ $ $ $ $ $ $ # @ + .     ",
"  % & * = - ; > > > > > > > > > > > > > > > > > > ; - = * & %       & * = - ; > > > > > > > > > > > > > > > > > > ; - = * &     ",
"  , ' ) ! ~ { ] ] ] ] ] ] ] ] ] ] ] ] ] ] ] ] ] ] { ~ ! ) ' ,     , ' ) ! ~ { ] ] ] ] ] ] ] ] ] ] ] ] ] ] ] ] ] ] { ~ ! ) ' ,   ",
"  ^ / ( _ : < [ } } } } } } } } } } } } } } } } [ < : _ ( / ^     ^ / ( _ : < [ } } } } } } } } } } } } } } } } [ < : _ ( / ^   ",
"  | 1 2 3 4 5 6 6 6 6 6 6 6 6 6 6 6 6 6 6 6 6 6 6 5 4 3 2 1 |     | 1 2 3 4 5 6 6 6 6 6 6 6 6 6 6 6 6 6 6 6 6 6 6 5 4 3 2 1 |   ",
"  7 8 9 0 a b c d d d d d d d d d d d d d d d d c b a 0 9 8 7     7 8 9 0 a b c d d d d d d d d d d d d d d d d c b a 0 9 8 7   ",
"  e f g h i j k l l l l l l l l l l l l l l l l k j i h g f e     e f g h i j k l l l l l l l l l l l l l l l l k j i h g f e   ",
"  | m n o p 8 q r s s s s s s s t s s s s s s s u 8 p o n m |     | m n o p 8 q r s s s s s s s t s s s s s s s u 8 p o n m |   ",
"  | v w x y z A B C C C C C C C D E C C C C C F G z y x w v |     | v w x y z A B C C C C C C C D E C C C C C F G z y x w v |   ",
"  | H I J K L M N O P P P P O Q R S O P P P P T U V K J I H |     | H I J K L M N O P P P P O Q R S O P P P P T U V K J I H |   ",
"  | W I X Y Z `  ...+.+.+.+.+.@.#.$.+.+.+.+.+.%.&.*.Y X I W |     | W I X Y Z `  ...+.+.+.+.+.@.#.$.+.+.+.+.+.%.&.*.Y X I W |   ",
"  | W I X =.-.;.>.,.'.'.'.'.'.).!.~.'.'.'.'.'.{.].^.=.X I W |     | W I X =.-.;.>.,.'.'.'.'.'.).!.~.'.'.'.'.'.{.].^.=.X I W |   ",
"  | W I X =./.(._.:.<.<.<.<.<.[.}.[.<.<.<.<.:.|.].^.=.X I W |     | W I X =./.(._.:.<.<.<.<.<.[.}.[.<.<.<.<.:.|.].^.=.X I W |   ",
"  | W I X =.^.1.2.3.3.3.3.3.3.3.4.4.3.3.3.3.3.2.5.^.=.X I W |     | W I X =.^.1.2.3.3.3.3.3.3.3.4.4.3.3.3.3.3.2.5.^.=.X I W |   ",
"  | W I J 6.^.7.8.9.9.9.9.9.9.9.9.9.9.9.9.9.9.0.].^.6.J I W |     | W I J 6.^.7.8.9.9.9.9.9.9.9.9.9.9.9.9.9.9.0.].^.6.J I W |   ",
"  | W I x a.b.c.d.e.f.g.f.h.h.f.f.h.h.f.g.f.e.d.c.b.a.x I W |     | W I x a.b.c.d.e.f.g.f.h.h.f.f.h.h.f.g.f.e.d.c.b.a.x I W |   ",
"  | W I i.].j.k.l.m.n.o.p.q.q.r.r.q.q.p.o.n.m.l.k.j.].i.I W |     | W I i.].j.k.l.m.n.o.p.q.q.r.r.q.q.p.o.n.m.l.k.j.].i.I W |   ",
"  | W s.t.u.a.v.w.x.y.z.A.B.C.D.D.C.B.A.z.y.x.w.v.a.u.t.s.W |     | W s.t.u.a.v.w.x.y.z.A.B.C.D.D.C.B.A.z.y.x.w.v.a.u.t.s.W |   ",
"  | E.0 F.G.H.I.J.K.L.M.N.O.P.Q.Q.P.O.N.M.L.K.J.I.H.G.F.0 E.|     | E.0 F.G.H.I.J.K.L.M.N.O.P.Q.Q.P.O.N.M.L.K.J.I.H.G.F.0 E.|   ",
"  | W R.S.T.U.V.W.X.Y.W.W.X.X.W.W.X.X.W.W.Y.X.W.V.U.T.S.R.W |     | W R.S.T.U.V.W.X.Y.W.W.X.X.W.W.X.X.W.W.Y.X.W.V.U.T.S.R.W |   ",
"  Z.`. +.+++@+[.:.:.:.:.:.:.:.:.:.:.:.:.:.:.:.:.[.@+++.+ +`.Z.    Z.`. +.+++@+[.:.:.:.:.:.:.:.:.:.:.:.:.:.:.:.:.[.@+++.+ +`.Z.  ",
"  Z.#+$+%+&+*+=+-+|.|.|.|.|.|.|.|.|.|.|.|.|.|.-+=+*+&+%+$+#+Z.    Z.#+$+%+&+*+=+-+|.|.|.|.|.|.|.|.|.|.|.|.|.|.-+=+*+&+%+$+#+Z.  ",
"  ;+>+,+'+)+!+~+{+]+]+]+]+]+]+]+]+]+]+]+]+]+]+{+~+!+)+'+,+>+;+    ;+>+,+'+)+!+~+{+]+]+]+]+]+]+]+]+]+]+]+]+]+]+{+~+!+)+'+,+>+;+  ",
"    ^+/+n.(+_+:+                                :+_+(+n./+^+        ^+/+n.(+_+:+                                :+_+(+n./+^+    ",
"                                                                                                                                ",
"                                                                                                                                ",
"                                                                                                                                ",
"                                                                                                                                ",
"                                                                                                                                ",
"                                                                                                                                ",
"                                                                                                                                ",
"                                                                                                                                ",
"    <++ @ # $ $ $ $ $ $ $ $ $ $ $ $ $ $ $ $ $ $ $ $ # @ + <+        . + @ # $ $ $ $ $ $ $ $ $ $ $ $ $ $ $ $ $ $ $ $ # @ + .     ",
"    & * = - ; > > > > > > > > > > > > > > > > > > ; - = * &       % & * = - ; > > > > > > > > > > > > > > > > > > ; - = * & %   ",
"  , ' ) ! ~ { ] ] ] ] ] ] ] ] ] ] ] ] ] ] ] ] ] ] { ~ ! ) ' ,     , ' ) ! ~ { ] ] ] ] ] ] ] ] ] ] ] ] ] ] ] ] ] ] { ~ ! ) ' ,   ",
"  ^ / ( _ : < [ } } } } } } } } } } } } } } } } [ < : _ ( / ^     ^ / ( _ : < [ } } } } } } } } } } } } } } } } [ < : _ ( / ^   ",
"  | 1 2 3 4 5 6 6 6 6 6 6 6 6 6 6 6 6 6 6 6 6 6 6 5 4 3 2 1 |     | 1 2 3 4 5 6 6 6 6 6 6 6 6 6 6 6 6 6 6 6 6 6 6 5 4 3 2 1 |   ",
"  7 8 9 0 a b c d d d d d d d d d d d d d d d d c b a 0 9 8 7     7 8 9 0 a b c d d d d d d d d d d d d d d d d c b a 0 9 8 7   ",
"  e f g h i j k l l l l l l l l l l l l l l l l k j i h g f e     e f g h i j k l l l l l l l l l l l l l l l l k j i h g f e   ",
"  | m n o p 8 q r s s s s s s s t s s s s s s s u 8 p o n m |     | m n o p 8 q r s s s s s s s t s s s s s s s u 8 p o n m |   ",
"  | v w x y z A B C C C C C C C D E C C C C C F G z y x w v |     | v w x y z A B C C C C C C C D E C C C C C F G z y x w v |   ",
"  | H I J K L M N O P P P P O Q R S O P P P P T U V K J I H |     | H I J K L M N O P P P P O Q R S O P P P P T U V K J I H |   ",
"  | W I X Y Z `  ...+.+.+.+.+.@.#.$.+.+.+.+.+.%.&.*.Y X I W |     | W I X Y Z `  ...+.+.+.+.+.@.#.$.+.+.+.+.+.%.&.*.Y X I W |   ",
"  | W I X =.-.;.>.,.'.'.'.'.'.).!.~.'.'.'.'.'.{.].^.=.X I W |     | W I X =.-.;.>.,.'.'.'.'.'.).!.~.'.'.'.'.'.{.].^.=.X I W |   ",
"  | W I X =./.(._.:.<.<.<.<.<.[.}.[.<.<.<.<.:.|.].^.=.X I W |     | W I X =./.(._.:.<.<.<.<.<.[.}.[.<.<.<.<.:.|.].^.=.X I W |   ",
"  | W I X =.^.1.2.3.3.3.3.3.3.3.4.4.3.3.3.3.3.2.5.^.=.X I W |     | W I X =.^.1.2.3.3.3.3.3.3.3.4.4.3.3.3.3.3.2.5.^.=.X I W |   ",
"  | W I J 6.^.7.8.9.9.9.9.9.9.9.9.9.9.9.9.9.9.0.].^.6.J I W |     | W I J 6.^.7.8.9.9.9.9.9.9.9.9.9.9.9.9.9.9.0.].^.6.J I W |   ",
"  | W I x a.b.c.d.e.f.g.f.h.h.f.f.h.h.f.g.f.e.d.c.b.a.x I W |     | W I x a.b.c.d.e.f.g.f.h.h.f.f.h.h.f.g.f.e.d.c.b.a.x I W |   ",
"  | W I i.].j.k.l.m.n.o.p.q.q.r.r.q.q.p.o.n.m.l.k.j.].i.I W |     | W I i.].j.k.l.m.n.o.p.q.q.r.r.q.q.p.o.n.m.l.k.j.].i.I W |   ",
"  | W s.t.u.a.v.w.x.y.z.A.B.C.D.D.C.B.A.z.y.x.w.v.a.u.t.s.W |     | W s.t.u.a.v.w.x.y.z.A.B.C.D.D.C.B.A.z.y.x.w.v.a.u.t.s.W |   ",
"  | E.0 F.G.H.I.J.K.L.M.N.O.P.Q.Q.P.O.N.M.L.K.J.I.H.G.F.0 E.|     | E.0 F.G.H.I.J.K.L.M.N.O.P.Q.Q.P.O.N.M.L.K.J.I.H.G.F.0 E.|   ",
"  | W R.S.T.U.V.W.X.Y.W.W.X.X.W.W.X.X.W.W.Y.X.W.V.U.T.S.R.W |     | W R.S.T.U.V.W.X.Y.W.W.X.X.W.W.X.X.W.W.Y.X.W.V.U.T.S.R.W |   ",
"  Z.`. +.+++@+[.:.:.:.:.:.:.:.:.:.:.:.:.:.:.:.:.[.@+++.+ +`.Z.    Z.`. +.+++@+[.:.:.:.:.:.:.:.:.:.:.:.:.:.:.:.:.[.@+++.+ +`.Z.  ",
"  Z.#+$+%+&+*+=+-+|.|.|.|.|.|.|.|.|.|.|.|.|.|.-+=+*+&+%+$+#+Z.    Z.#+$+%+&+*+=+-+|.|.|.|.|.|.|.|.|.|.|.|.|.|.-+=+*+&+%+$+#+Z.  ",
"  ;+>+,+'+)+!+~+{+]+]+]+]+]+]+]+]+]+]+]+]+]+]+{+~+!+)+'+,+>+;+    ;+>+,+'+)+!+~+{+]+]+]+]+]+]+]+]+]+]+]+]+]+]+{+~+!+)+'+,+>+;+  ",
"    ^+/+n.(+_+:+                                :+_+(+n./+^+        ^+/+n.(+_+:+                                :+_+(+n./+^+    ",
"                                                                                                                                ",
"                                                                                                                                ",
"                                                                                                                                ",
"                                                                                                                                "};
