/* XPM */
static char * floor_4_xpm[] = {
"64 64 94 2",
"  	c #E45910",
". 	c #C84D0C",
"+ 	c #822F05",
"@ 	c #2A0A00",
"# 	c #050100",
"$ 	c #010000",
"% 	c #000000",
"& 	c #010101",
"* 	c #100C09",
"= 	c #201A14",
"- 	c #262019",
"; 	c #B9460A",
"> 	c #993907",
", 	c #722804",
"' 	c #411301",
") 	c #060100",
"! 	c #070503",
"~ 	c #473C31",
"{ 	c #766655",
"] 	c #897663",
"^ 	c #B6450A",
"/ 	c #AC4109",
"( 	c #712804",
"_ 	c #260800",
": 	c #060403",
"< 	c #29221B",
"[ 	c #7A6857",
"} 	c #BBA188",
"| 	c #D5B99C",
"1 	c #B7460A",
"2 	c #9A3907",
"3 	c #43392E",
"4 	c #796857",
"5 	c #B09880",
"6 	c #DFC1A3",
"7 	c #F5D4B3",
"8 	c #BBA288",
"9 	c #F0D0B0",
"0 	c #F8D7B5",
"a 	c #F8D6B5",
"b 	c #F7D6B5",
"c 	c #1F0600",
"d 	c #230701",
"e 	c #230700",
"f 	c #230801",
"g 	c #1F0903",
"h 	c #2D231B",
"i 	c #802E05",
"j 	c #812E05",
"k 	c #812D02",
"l 	c #81300B",
"m 	c #814932",
"n 	c #8A6B58",
"o 	c #C94D0C",
"p 	c #C84B05",
"q 	c #C95018",
"r 	c #CC7756",
"s 	c #D3A588",
"t 	c #E0C1A3",
"u 	c #E65A10",
"v 	c #E55706",
"w 	c #E65D1D",
"x 	c #EA8A64",
"y 	c #F1BD9C",
"z 	c #F6D4B3",
"A 	c #F7D7B5",
"B 	c #E95B10",
"C 	c #E85B10",
"D 	c #E85A10",
"E 	c #E85806",
"F 	c #E85D1D",
"G 	c #ED8C66",
"H 	c #F4BF9E",
"I 	c #F7D7B6",
"J 	c #E75A10",
"K 	c #E75806",
"L 	c #EC8B65",
"M 	c #F3BE9D",
"N 	c #F7D5B4",
"O 	c #E75502",
"P 	c #E75B1A",
"Q 	c #EB8A64",
"R 	c #F3BF9D",
"S 	c #E76026",
"T 	c #EB8C66",
"U 	c #F3BE9C",
"V 	c #F7D4B3",
"W 	c #ED9A77",
"X 	c #F1B290",
"Y 	c #F4C4A3",
"Z 	c #F6D1B0",
"` 	c #EE9D7A",
" .	c #EFA583",
"..	c #EFA582",
"  . + @ # $ % % % % % % % % % % % % % % % % % % % % % % & * = - - = * & % % % % % % % % % % % % % % % % % % % % % % $ # @ + .   ",
". ; > , ' ) % % % % % % % % % % % % % % % % % % % % % % ! ~ { ] ] { ~ ! % % % % % % % % % % % % % % % % % % % % % % ) ' , > ; . ",
"+ > ^ / ( _ ) $ % % % % % % % % % % % % % % % % % % & : < [ } | | } [ < : & % % % % % % % % % % % % % % % % % % $ ) _ ( / ^ > + ",
"@ , / 1 2 ( ' ) % % % % % % % % % % % % % % % % % % : 3 4 5 6 7 7 6 5 4 3 : % % % % % % % % % % % % % % % % % % ) ' ( 2 1 / , @ ",
"# ' ( 2 1 / ( _ ) $ % % % % % % % % % % % % % % & : < 4 8 6 9 0 0 9 6 8 4 < : & % % % % % % % % % % % % % % $ ) _ ( / 1 2 ( ' # ",
"$ ) _ ( / 1 2 ( ' # % % % % % % % % % % % % % % : 3 4 5 6 7 a b b a 7 6 5 4 3 : % % % % % % % % % % % % % % # ' ( 2 1 / ( _ ) $ ",
"% % ) ' ( 2 1 / , @ c d d d d d d d d d d e f g h 4 8 6 9 a b b b b a 9 6 8 4 h g f e d d d d d d d d d d c @ , / 1 2 ( ' ) % % ",
"% % $ ) _ ( / ^ > + i j j j j j j j j j j k l m n 5 6 7 a b b b b b b a 7 6 5 n m l k j j j j j j j j j j i + > ^ / ( _ ) $ % % ",
"% % % % ) ' , > ; . o . . . . . . . . . . p q r s t 9 a b b b b b b b b a 9 t s r q p . . . . . . . . . . o . ; > , ' ) % % % % ",
"% % % % $ # @ + .   u u u u u u u u u u u v w x y z A b b b b b b b b b b A z y x w v u u u u u u u u u u u   . + @ # $ % % % % ",
"% % % % % % c i o u B C C C C C C C C C D E F G H b I b b b b b b b b b b I b H G F E D C C C C C C C C C B u o i c % % % % % % ",
"% % % % % % d j . u C J J J J J J J J J J K F L M N I b b b b b b b b b b I N M L F K J J J J J J J J J J C u . j d % % % % % % ",
"% % % % % % d j . u C J J J J J J J J J J K F L M N I b b b b b b b b b b I N M L F K J J J J J J J J J J C u . j d % % % % % % ",
"% % % % % % d j . u C J J J J J J J J J J K F L M N I b b b b b b b b b b I N M L F K J J J J J J J J J J C u . j d % % % % % % ",
"% % % % % % d j . u C J J J J J J J J J J K F L M N I b b b b b b b b b b I N M L F K J J J J J J J J J J C u . j d % % % % % % ",
"% % % % % % d j . u C J J J J J J J J J J K F L M N I b b b b b b b b b b I N M L F K J J J J J J J J J J C u . j d % % % % % % ",
"% % % % % % d j . u C J J J J J J J J J J K F L M N I b b b b b b b b b b I N M L F K J J J J J J J J J J C u . j d % % % % % % ",
"% % % % % % d j . u C J J J J J J J J J J K F L M N I b b b b b b b b b b I N M L F K J J J J J J J J J J C u . j d % % % % % % ",
"% % % % % % d j . u C J J J J J J J J J J K F L M N I b b b b b b b b b b I N M L F K J J J J J J J J J J C u . j d % % % % % % ",
"% % % % % % d j . u C J J J J J J J J J J K F L M N I b b b b b b b b b b I N M L F K J J J J J J J J J J C u . j d % % % % % % ",
"% % % % % % d j . u D J J J J J J J J J J K F L M N I b b b b b b b b b b I N M L F K J J J J J J J J J J D u . j d % % % % % % ",
"% % % % % % e k p v E K K K K K K K K K K O P Q R b I b b b b b b b b b b I b R Q P O K K K K K K K K K K E v p k e % % % % % % ",
"% % % % % % f l q w F F F F F F F F F F F P S T U V b b b b b b b b b b b b V U T S P F F F F F F F F F F F w q l f % % % % % % ",
"% % % % % % g m r x G L L L L L L L L L L Q T W X Y Z b b b b b b b b b b Z Y X W T Q L L L L L L L L L L G x r m g % % % % % % ",
"% % % % & : h n s y H M M M M M M M M M M R U X `  .Y V b b b b b b b b V Y  .` X U R M M M M M M M M M M H y s n h : & % % % % ",
"% % % % : 3 4 5 t z b N N N N N N N N N N b V Y  .` X Y Z b b b b b b Z Y X `  .Y V b N N N N N N N N N N b z t 5 4 3 : % % % % ",
"% % & : < 4 8 6 9 A I I I I I I I I I I I I b Z Y X ` ..Y V b b b b V Y ..` X Y Z b I I I I I I I I I I I I A 9 6 8 4 < : & % % ",
"% % : 3 4 5 6 7 a b b b b b b b b b b b b b b b V Y ..` X Y Z b b Z Y X ` ..Y V b b b b b b b b b b b b b b b a 7 6 5 4 3 : % % ",
"& ! < 4 8 6 9 a b b b b b b b b b b b b b b b b b Z Y X `  .Y V V Y  .` X Y Z b b b b b b b b b b b b b b b b b a 9 6 8 4 < ! & ",
"* ~ [ 5 6 7 a b b b b b b b b b b b b b b b b b b b V Y  .` X U U X `  .Y V b b b b b b b b b b b b b b b b b b b a 7 6 5 [ ~ * ",
"= { } 6 9 a b b b b b b b b b b b b b b b b b b b b b Z Y X W T T W X Y Z b b b b b b b b b b b b b b b b b b b b b a 9 6 } { = ",
"- ] | 7 0 b b b b b b b b b b b b b b b b b b b b b b b V U T S S T U V b b b b b b b b b b b b b b b b b b b b b b b 0 7 | ] - ",
"- ] | 7 0 b b b b b b b b b b b b b b b b b b b b b b b V U T S S T U V b b b b b b b b b b b b b b b b b b b b b b b 0 7 | ] - ",
"= { } 6 9 a b b b b b b b b b b b b b b b b b b b b b Z Y X W T T W X Y Z b b b b b b b b b b b b b b b b b b b b b a 9 6 } { = ",
"* ~ [ 5 6 7 a b b b b b b b b b b b b b b b b b b b V Y  .` X U U X `  .Y V b b b b b b b b b b b b b b b b b b b a 7 6 5 [ ~ * ",
"& ! < 4 8 6 9 a b b b b b b b b b b b b b b b b b Z Y X `  .Y V V Y  .` X Y Z b b b b b b b b b b b b b b b b b a 9 6 8 4 < ! & ",
"% % : 3 4 5 6 7 a b b b b b b b b b b b b b b b V Y ..` X Y Z b b Z Y X ` ..Y V b b b b b b b b b b b b b b b a 7 6 5 4 3 : % % ",
"% % & : < 4 8 6 9 A I I I I I I I I I I I I b Z Y X ` ..Y V b b b b V Y ..` X Y Z b I I I I I I I I I I I I A 9 6 8 4 < : & % % ",
"% % % % : 3 4 5 t z b N N N N N N N N N N b V Y  .` X Y Z b b b b b b Z Y X `  .Y V b N N N N N N N N N N b z t 5 4 3 : % % % % ",
"% % % % & : h n s y H M M M M M M M M M M R U X `  .Y V b b b b b b b b V Y  .` X U R M M M M M M M M M M H y s n h : & % % % % ",
"% % % % % % g m r x G L L L L L L L L L L Q T W X Y Z b b b b b b b b b b Z Y X W T Q L L L L L L L L L L G x r m g % % % % % % ",
"% % % % % % f l q w F F F F F F F F F F F P S T U V b b b b b b b b b b b b V U T S P F F F F F F F F F F F w q l f % % % % % % ",
"% % % % % % e k p v E K K K K K K K K K K O P Q R b I b b b b b b b b b b I b R Q P O K K K K K K K K K K E v p k e % % % % % % ",
"% % % % % % d j . u D J J J J J J J J J J K F L M N I b b b b b b b b b b I N M L F K J J J J J J J J J J D u . j d % % % % % % ",
"% % % % % % d j . u C J J J J J J J J J J K F L M N I b b b b b b b b b b I N M L F K J J J J J J J J J J C u . j d % % % % % % ",
"% % % % % % d j . u C J J J J J J J J J J K F L M N I b b b b b b b b b b I N M L F K J J J J J J J J J J C u . j d % % % % % % ",
"% % % % % % d j . u C J J J J J J J J J J K F L M N I b b b b b b b b b b I N M L F K J J J J J J J J J J C u . j d % % % % % % ",
"% % % % % % d j . u C J J J J J J J J J J K F L M N I b b b b b b b b b b I N M L F K J J J J J J J J J J C u . j d % % % % % % ",
"% % % % % % d j . u C J J J J J J J J J J K F L M N I b b b b b b b b b b I N M L F K J J J J J J J J J J C u . j d % % % % % % ",
"% % % % % % d j . u C J J J J J J J J J J K F L M N I b b b b b b b b b b I N M L F K J J J J J J J J J J C u . j d % % % % % % ",
"% % % % % % d j . u C J J J J J J J J J J K F L M N I b b b b b b b b b b I N M L F K J J J J J J J J J J C u . j d % % % % % % ",
"% % % % % % d j . u C J J J J J J J J J J K F L M N I b b b b b b b b b b I N M L F K J J J J J J J J J J C u . j d % % % % % % ",
"% % % % % % d j . u C J J J J J J J J J J K F L M N I b b b b b b b b b b I N M L F K J J J J J J J J J J C u . j d % % % % % % ",
"% % % % % % c i o u B C C C C C C C C C D E F G H b I b b b b b b b b b b I b H G F E D C C C C C C C C C B u o i c % % % % % % ",
"% % % % $ # @ + .   u u u u u u u u u u u v w x y z A b b b b b b b b b b A z y x w v u u u u u u u u u u u   . + @ # $ % % % % ",
"% % % % ) ' , > ; . o . . . . . . . . . . p q r s t 9 a b b b b b b b b a 9 t s r q p . . . . . . . . . . o . ; > , ' ) % % % % ",
"% % $ ) _ ( / ^ > + i j j j j j j j j j j k l m n 5 6 7 a b b b b b b a 7 6 5 n m l k j j j j j j j j j j i + > ^ / ( _ ) $ % % ",
"% % ) ' ( 2 1 / , @ c d d d d d d d d d d e f g h 4 8 6 9 a b b b b a 9 6 8 4 h g f e d d d d d d d d d d c @ , / 1 2 ( ' ) % % ",
"$ ) _ ( / 1 2 ( ' # % % % % % % % % % % % % % % : 3 4 5 6 7 a b b a 7 6 5 4 3 : % % % % % % % % % % % % % % # ' ( 2 1 / ( _ ) $ ",
"# ' ( 2 1 / ( _ ) $ % % % % % % % % % % % % % % & : < 4 8 6 9 0 0 9 6 8 4 < : & % % % % % % % % % % % % % % $ ) _ ( / 1 2 ( ' # ",
"@ , / 1 2 ( ' ) % % % % % % % % % % % % % % % % % % : 3 4 5 6 7 7 6 5 4 3 : % % % % % % % % % % % % % % % % % % ) ' ( 2 1 / , @ ",
"+ > ^ / ( _ ) $ % % % % % % % % % % % % % % % % % % & : < [ } | | } [ < : & % % % % % % % % % % % % % % % % % % $ ) _ ( / ^ > + ",
". ; > , ' ) % % % % % % % % % % % % % % % % % % % % % % ! ~ { ] ] { ~ ! % % % % % % % % % % % % % % % % % % % % % % ) ' , > ; . ",
"  . + @ # $ % % % % % % % % % % % % % % % % % % % % % % & * = - - = * & % % % % % % % % % % % % % % % % % % % % % % $ # @ + .   "};
