/* XPM */
static char * wall_1_xpm[] = {
"64 64 212 2",
"  	c #001147",
". 	c #06174A",
"+ 	c #12214F",
"@ 	c #051649",
"# 	c #0F1E4D",
"$ 	c #091949",
"% 	c #11204F",
"& 	c #152453",
"* 	c #0C1B4B",
"= 	c #071749",
"- 	c #031448",
"; 	c #101F4E",
"> 	c #0A1A4B",
", 	c #23325D",
"' 	c #41547D",
") 	c #1F2D59",
"! 	c #394B72",
"~ 	c #2B3958",
"{ 	c #394B70",
"] 	c #303F60",
"^ 	c #253355",
"/ 	c #14224D",
"( 	c #3C4E75",
"_ 	c #2D3D66",
": 	c #1E2D59",
"< 	c #394A71",
"[ 	c #3A4C71",
"} 	c #3E5178",
"| 	c #2A3A63",
"1 	c #394B71",
"2 	c #1C2A50",
"3 	c #182650",
"4 	c #2F3E5F",
"5 	c #344467",
"6 	c #495F8C",
"7 	c #23335E",
"8 	c #001047",
"9 	c #455A86",
"0 	c #495E8B",
"a 	c #41547E",
"b 	c #16234D",
"c 	c #303F61",
"d 	c #23335F",
"e 	c #455A87",
"f 	c #41557E",
"g 	c #192852",
"h 	c #334466",
"i 	c #2E3D5D",
"j 	c #37476C",
"k 	c #3C4E74",
"l 	c #263663",
"m 	c #38496E",
"n 	c #465B87",
"o 	c #21315D",
"p 	c #425782",
"q 	c #3F527A",
"r 	c #3A4C72",
"s 	c #324264",
"t 	c #12204C",
"u 	c #283656",
"v 	c #394A6F",
"w 	c #1E2B52",
"x 	c #15234D",
"y 	c #445883",
"z 	c #202F59",
"A 	c #1C2A56",
"B 	c #112150",
"C 	c #25345F",
"D 	c #0E1E4E",
"E 	c #22325D",
"F 	c #21305B",
"G 	c #17254E",
"H 	c #202F5A",
"I 	c #1B2953",
"J 	c #13214D",
"K 	c #132352",
"L 	c #2A3B67",
"M 	c #263762",
"N 	c #172654",
"O 	c #162552",
"P 	c #2C3C65",
"Q 	c #283760",
"R 	c #1C2950",
"S 	c #27375F",
"T 	c #23335D",
"U 	c #1A2956",
"V 	c #212F56",
"W 	c #233159",
"X 	c #1D2C57",
"Y 	c #3B4D74",
"Z 	c #354770",
"` 	c #293963",
" .	c #3D4F76",
"..	c #3F5179",
"+.	c #132251",
"@.	c #273761",
"#.	c #23325C",
"$.	c #18264E",
"%.	c #22325B",
"&.	c #1F2E5A",
"*.	c #192855",
"=.	c #3E5182",
"-.	c #4D6397",
";.	c #263665",
">.	c #152452",
",.	c #33446D",
"'.	c #283862",
").	c #4C6194",
"!.	c #5D76AD",
"~.	c #2F4170",
"{.	c #1C2B57",
"].	c #34456E",
"^.	c #1C2B56",
"/.	c #40537B",
"(.	c #41537C",
"_.	c #3B4E7D",
":.	c #53699B",
"<.	c #52689A",
"[.	c #223261",
"}.	c #13214E",
"|.	c #2C3A59",
"1.	c #394A70",
"2.	c #3E517A",
"3.	c #3D5077",
"4.	c #1B2A56",
"5.	c #334366",
"6.	c #40537C",
"7.	c #293757",
"8.	c #21315C",
"9.	c #0C1B4C",
"0.	c #2A3963",
"a.	c #1A284F",
"b.	c #1B284F",
"c.	c #19274E",
"d.	c #132351",
"e.	c #30416C",
"f.	c #24335C",
"g.	c #0D1C4D",
"h.	c #22315B",
"i.	c #26355D",
"j.	c #32446F",
"k.	c #011247",
"l.	c #051648",
"m.	c #22325C",
"n.	c #2A3A64",
"o.	c #344568",
"p.	c #0A1A4A",
"q.	c #324265",
"r.	c #37486C",
"s.	c #2C3B61",
"t.	c #152351",
"u.	c #3E5077",
"v.	c #435782",
"w.	c #445882",
"x.	c #2C3D67",
"y.	c #364872",
"z.	c #37486D",
"A.	c #35466A",
"B.	c #222F53",
"C.	c #0C1B4A",
"D.	c #475D89",
"E.	c #30426D",
"F.	c #3B4E7A",
"G.	c #2D3B5B",
"H.	c #3E5179",
"I.	c #36486C",
"J.	c #36466A",
"K.	c #152555",
"L.	c #3B4D73",
"M.	c #26355E",
"N.	c #2F4067",
"O.	c #42567F",
"P.	c #0E1D4B",
"Q.	c #2E3D5E",
"R.	c #1D2B52",
"S.	c #253357",
"T.	c #465A86",
"U.	c #3F527B",
"V.	c #32446D",
"W.	c #3D4F77",
"X.	c #2A3857",
"Y.	c #35466B",
"Z.	c #344569",
"`.	c #283657",
" +	c #142554",
".+	c #475D8A",
"++	c #445884",
"@+	c #011248",
"#+	c #07184B",
"$+	c #031449",
"%+	c #041649",
"&+	c #08194C",
"*+	c #08194B",
"=+	c #142250",
"-+	c #3B4D76",
";+	c #273455",
">+	c #324267",
",+	c #394A73",
"'+	c #192854",
")+	c #334368",
"!+	c #2B3A5C",
"~+	c #2E3D61",
"{+	c #2F4069",
"]+	c #162452",
"^+	c #3E5078",
"/+	c #2A3858",
"(+	c #36476B",
"_+	c #3D5079",
":+	c #021348",
"<+	c #0B1B4D",
"[+	c #0A1A4C",
"}+	c #021448",
"                                                                                                                                ",
"  . + + + + + + + + + @     # $ $ $ $ $ $ $ $ $ $ $ $ $ $ $ $ $ $ $ % & & & & & & & & & * $ $ $ $ $ =     - $ $ $ $ ; + + + >   ",
"  , ' ' ' ' ' ' ' ' ' )     ! ~ ~ ~ ~ ~ ~ ~ ~ ~ ~ ~ ~ ~ ~ ~ ~ ~ ~ ~ { ' ' ' ' ' ' ' ' ' ] ~ ~ ~ ~ ~ ^     / ~ ~ ~ ~ ( ' ' ' _   ",
"  , ' ' ' ' ' ' ' ' ' :     < ~ ~ ~ ~ ~ ~ ~ ~ ~ ~ ~ ~ ~ ~ ~ ~ ~ ~ ~ ~ ~ ~ ~ ~ ~ ~ ~ ~ ~ ~ ~ ~ ~ ~ ~ ^     / ~ ~ ~ ~ [ } } } |   ",
"  , ' ' ' ' ' ' ' ' ' )     1 ~ ~ ~ ~ ~ ~ ~ ~ ~ ~ ~ ~ ~ ~ ~ ~ ~ ~ ~ ~ ~ ~ ~ ~ ~ ~ ~ ~ ~ ~ ~ ~ ~ ~ ~ ^     / ~ ~ ~ ~ ~ ~ ~ ~ 2   ",
"  3 4 4 4 4 4 4 5 6 6 7   8 9 0 0 0 a ~ ~ ~ ~ ~ ~ ~ ~ ~ ~ ~ ~ ~ ~ ~ ~ ~ ~ ~ ~ ~ ~ ~ ~ ~ ~ ~ ~ ~ ~ ~ ^     / ~ ~ ~ ~ ~ ~ ~ ~ 2   ",
"  b ~ ~ ~ ~ ~ ~ c 6 6 d   8 e 6 6 6 f ~ ~ ~ ~ ~ ~ ~ ~ ~ ~ ~ ~ ~ ~ ~ ~ ~ ~ ~ ~ ~ ~ ~ ~ ~ ~ ~ ~ ~ ~ ~ ^     / ~ ~ ~ ~ ~ ~ ~ ~ 2   ",
"  b ~ ~ ~ ~ ~ ~ c 6 6 d   8 e 6 6 6 f ~ ~ ~ ~ ~ ~ ~ ~ ~ ~ ~ ~ ~ ~ ~ ~ ~ ~ ~ ~ ~ ~ ~ ~ ~ ~ ~ ~ ~ ~ ~ ^     / ~ ~ ~ ~ ~ ~ ~ ~ 2   ",
"  b ~ ~ ~ ~ ~ ~ c 6 6 d   8 e 6 6 6 f ~ ~ ~ ~ ~ ~ ~ ~ ~ ~ ~ ~ ~ ~ ~ ~ ~ ~ ~ ~ ~ ~ ~ ~ ~ ~ ~ ~ ~ ~ ~ ^     g h h h h h h h i 2   ",
"  b ~ ~ ~ ~ ~ ~ c 6 6 d   8 e 6 6 6 f ~ ~ ~ ~ ~ ~ ~ ~ j k k k k k k k k k k k k k c ~ ~ ~ ~ ~ ~ ~ ~ ^     l 6 6 6 6 6 6 6 m 2   ",
"  b ~ ~ ~ ~ ~ ~ ] n n o     p n n n q ~ ~ ~ ~ ~ ~ ~ ~ r ' ' ' ' ' ' ' ' ' ' ' ' ' s ~ ~ ~ ~ ~ ~ ~ ~ ^     l 6 6 6 6 6 6 6 m 2   ",
"  b ~ ~ ~ ~ ~ ~ ~ ~ ~ t     u ~ ~ ~ ~ ~ ~ ~ ~ ~ ~ ~ ~ r ' ' ' ' ' ' ' ' ' ' ' ' ' s ~ ~ ~ ~ ~ ~ ~ ~ ^     l 6 6 6 6 6 6 6 v w   ",
"  x ~ ~ ~ ~ ~ ~ ~ ~ ~ t     u ~ ~ ~ ~ ~ ~ ~ ~ ~ ~ ~ ~ r ' ' ' ' ' ' ' ' ' ' ' ' ' s ~ ~ ~ ~ ~ ~ ~ ~ ^     l 6 6 6 6 6 6 6 y _   ",
"  z ( ( ( ( ( ( ( ( ( A     < ( ( m ~ ~ ~ ~ ~ ~ ~ ~ ~ r ' ' ' ' ' ' ' ' ' ' ' ' ' s ~ ~ ~ ~ ~ ~ ~ ~ ^     l 6 6 6 6 6 6 6 y _   ",
"  B C C C C C C C C C D     E C C F G G G G G G G G G H C C C C C C C C C C C C C I G G G G G G G G J     K L L L L L L L M N   ",
"                                                                                                                                ",
"  O P P P P P P P P P P P P P P P Q R R R R R R R R R S P P P T     U P P P P P P V R R R R R R R R R W P P P P P P P P P P X   ",
"  , ' ' ' ' ' ' ' ' ' ' ' ' ' ' ' Y ~ ~ ~ ~ ~ ~ ~ ~ ~ r ' ' ' Z     ` ' ' ' ' ' ' }  . . . . . . . . ...' ' ' ' ' ' ' ' ' ' _   ",
"  , ' ' ' ' ' ' ' ' ' ' ' ' ' ' ' Y ~ ~ ~ ~ ~ ~ ~ ~ ~ r ' ' ' Z     ` ' ' ' ' ' ' ' ' ' ' ' ' ' ' ' ' ' ' ' ' ' ' ' ' ' ' ' _   ",
"  , ' ' ' ' ' ' ' ' ' ' ' ' ' ' ' Y ~ ~ ~ ~ ~ ~ ~ ~ ~ r ' ' ' Z     ` ' ' ' ' ' ' ' ' ' ' ' ' ' ' ' ' ' ' ' ' ' ' ' ' ' ' ' _   ",
"  , ' ' ' ' ' ' ' ' ' ' ' ' ' ' ' Y ~ ~ ~ ~ ~ ~ ~ ~ ~ r ' ' ' Z     ` ' ' ' ' ' ' ' ' ' ' ' ' ' ' ' ' ' ' ' ' ' ' ' ' ' ' ' _   ",
"  , ' ' ' ' ' ' ' ' ' ' ' ' ' ' ' Y ~ ~ ~ ~ ~ ~ ~ ~ ~ r ' ' ' Z     ` ' ' ' ' ' ' ' ' ' ' ' ' ' ' ' ' ' ' ' ' ' ' ' ' ' ' ' _   ",
"  , ' ' ' ' ' ' ' ' ' ' ' ' ' ' ' Y ~ ~ ~ ~ ~ ~ ~ ~ ~ r ' ' ' Z     ` ' ' ' ' ' ' ' ' ' ' ' ' ' ' ' ' ' ' ' ' ' ' ' ' ' ' ' _   ",
"  , ' ' ' ' ' ' ' ' ' ' ' ' ' ' ' Y ~ ~ ~ ~ ~ ~ ~ ~ ~ r ' ' ' Z     ` ' ' ' ' ' ' ' ' ' ' ' ' ' ' ' ' ' ' ' ' ' ' ' ' ' ' ' _   ",
"  +.@.@.@.@.@.@.@.@.@.@.@.@.@.@.@.#.$.$.$.$.$.$.$.$.$.%.@.@.@.&.    N @.@.@.@.@.@.@.@.@.@.@.@.@.@.@.@.@.@.@.@.@.@.@.@.@.@.@.*.  ",
"                                                                                                                                ",
"                                                                                                                                ",
"  =.-.-.-.-.-.-.-.-.-.-.-.-.-.-.-.-.-.-.-.-.-.-.-.-.-.-.-.-.-.-.;.  >.,.,.,.,.,.,.,.,.,.,.,.,.,.,.,.,.,.,.,.,.,.,.,.,.,.,.,.'.  ",
"  ).!.!.!.!.!.!.!.!.!.!.!.!.!.!.!.!.!.!.!.!.!.!.!.!.!.!.!.!.!.!.~.  {.' ' ' ' ' ' ' ' ' ' ' ' ' ' ' ' ' ' ' ' ' ' ' ' ' ' ' ].  ",
"  ).!.!.!.!.!.!.!.!.!.!.!.!.!.!.!.!.!.!.!.!.!.!.!.!.!.!.!.!.!.!.~.  ^./././././././././././././././././././././././.(.' ' ' ].  ",
"  _.:.:.:.:.:.:.:.:.:.:.:.:.:.:.:.:.:.:.:.:.:.:.:.:.:.:.:.:.:.<.[.  }.|.|.|.|.|.|.|.|.|.|.|.|.|.|.|.|.|.|.|.|.|.|.|.1.' ' ' ].  ",
"  O ' ' ' ' ' ' ' ' ' ' ' ' ' ' ' ' ' ' ' ' ' ' ' ' ' ' ' ' ' 2.8   J ~ ~ ~ ~ ~ ~ ~ ~ ~ ~ ~ ~ ~ ~ ~ ~ ~ ~ ~ ~ ~ ~ ~ v ' ' ' ].  ",
"  O ' ' ' ' ' ' ' ' ' ' ' ' ' ' ' ' ' ' ' ' ' ' ' ' ' ' ' ' ' 2.8   J ~ ~ ~ ~ ~ ~ ~ ~ ~ ~ ~ ~ ~ ~ ~ ~ ~ ~ ~ ~ ~ ~ ~ v ' ' ' ].  ",
"  O ' ' ' ' ' ' ' ' ' ' ' ' ' ' ' ' ' ' ' ' ' ' ' ' ' ' ' ' ' 2.8   J ~ ~ ~ ~ ~ ~ ~ ~ ~ ~ ~ ~ ~ ~ ~ ~ ~ ~ ~ ~ ~ ~ ~ v ' ' ' ].  ",
"  O ' ' ' ' ' ' ' ' ' ' ' ' ' 3.3.3.3.3.3.3.3.3.3.3.3.3.3.3.3.Y 8   4.3.3.3.3.3.3.3.3.3.5.~ ~ ~ ~ ~ ~ ~ ~ ~ ~ ~ ~ ~ v ' ' ' ].  ",
"  O ' ' ' ' ' ' ' ' ' ' ' ' 6.~ ~ ~ ~ ~ ~ ~ ~ ~ ~ ~ ~ ~ ~ ~ ~ 7.    8.6 6 6 6 6 6 6 6 6 1.~ ~ ~ ~ ~ ~ ~ ~ ~ ~ ~ ~ ~ v ' ' ' ].  ",
"  O ' ' ' ' ' ' ' ' ' ' ' ' 6.~ ~ ~ ~ ~ ~ ~ ~ ~ ~ ~ ~ ~ ~ ~ ~ 7.    8.6 6 6 6 6 6 6 6 6 1.~ ~ ~ ~ ~ ~ ~ ~ ~ ~ ~ ~ ~ v ' ' ' ].  ",
"  9.| | | | | | | | | | | | 0.a.b.b.b.b.b.b.b.b.b.b.b.b.b.b.b.c.    d.e.e.e.e.e.e.e.e.e.f.b.b.b.b.b.b.b.b.b.b.b.b.b.f.| | | F   ",
"                                                                                                                                ",
"  g.P P P P P P P P P 4.    h.R R R R R R R R R R R R R R R R R R R i.j.j.j.j.j.j.j.j.j.i.R R R R R b.k.  l.R R R R i.P P P m.  ",
"  O ' ' ' ' ' ' ' ' ' n.    ,.~ ~ ~ ~ ~ ~ ~ ~ ~ ~ ~ ~ ~ ~ ~ ~ ~ ~ ~ 4 o.o.o.o.o.o.o.o.o.4 ~ ~ ~ ~ ~ 7.k.  p.~ ~ ~ ~ v ' ' ' ].  ",
"  O ' ' ' ' ' ' ' ' ' n.    ,.~ ~ ~ ~ ~ ~ ~ ~ ~ ~ ~ ~ ~ ~ ~ ~ ~ ~ ~ ~ ~ ~ ~ ~ ~ ~ ~ ~ ~ ~ ~ ~ ~ ~ ~ 7.k.  p.~ ~ ~ ~ q.r.r.r.s.  ",
"  t.u.u.u.u.u.u.u.v.w.x.    y.z.z.z.A.~ ~ ~ ~ ~ ~ ~ ~ ~ ~ ~ ~ ~ ~ ~ ~ ~ ~ ~ ~ ~ ~ ~ ~ ~ ~ ~ ~ ~ ~ ~ 7.k.  p.~ ~ ~ ~ ~ ~ ~ ~ B.  ",
"  C.~ ~ ~ ~ ~ ~ ~ D.6 E.    F.6 6 6 9 ~ ~ ~ ~ ~ ~ ~ ~ ~ ~ ~ ~ ~ ~ ~ ~ ~ ~ ~ ~ ~ ~ ~ ~ ~ ~ ~ ~ ~ ~ ~ 7.k.  p.~ ~ ~ ~ ~ ~ ~ ~ B.  ",
"  C.~ ~ ~ ~ ~ ~ ~ D.6 E.    F.6 6 6 9 ~ ~ ~ ~ ~ ~ ~ ~ ~ ~ ~ ~ ~ ~ ~ ~ ~ ~ ~ ~ ~ ~ ~ ~ ~ ~ ~ ~ ~ ~ ~ 7.k.  p.~ ~ ~ ~ ~ ~ ~ ~ B.  ",
"  C.~ ~ ~ ~ ~ ~ ~ D.6 E.    F.6 6 6 9 ~ ~ ~ ~ ~ ~ ~ ~ ~ ~ ~ ~ ~ ~ ~ ~ ~ ~ ~ ~ ~ ~ ~ ~ ~ ~ ~ ~ ~ ~ ~ 7.k.  p.~ ~ ~ ~ ~ ~ ~ ~ B.  ",
"  C.~ ~ ~ ~ ~ ~ ~ D.6 E.    F.6 6 6 9 ~ ~ ~ ~ ~ ~ ~ ~ G.4 4 4 4 4 4 4 4 4 4 4 4 4 G.~ ~ ~ ~ ~ ~ ~ ~ 7.k.  B H.H.H.H.H.H.H.I.B.  ",
"  C.~ ~ ~ ~ ~ ~ ~ D.6 E.    F.6 6 6 9 ~ ~ ~ ~ ~ ~ ~ ~ r.' ' ' ' ' ' ' ' ' ' ' ' ' J.~ ~ ~ ~ ~ ~ ~ ~ 7.k.  K.6 6 6 6 6 6 6 } B.  ",
"  C.~ ~ ~ ~ ~ ~ ~ r L.M.    N.L.L.L.1.~ ~ ~ ~ ~ ~ ~ ~ r.' ' ' ' ' ' ' ' ' ' ' ' ' J.~ ~ ~ ~ ~ ~ ~ ~ 7.k.  K.6 6 6 6 6 6 6 } B.  ",
"  C.~ ~ ~ ~ ~ ~ ~ ~ ~ b.    B.~ ~ ~ ~ ~ ~ ~ ~ ~ ~ ~ ~ r.' ' ' ' ' ' ' ' ' ' ' ' ' J.~ ~ ~ ~ ~ ~ ~ ~ 7.k.  K.6 6 6 6 6 6 6 O.s.  ",
"  P.Q.Q.Q.Q.Q.Q.Q.Q.Q.R.    S.Q.Q.i ~ ~ ~ ~ ~ ~ ~ ~ ~ r.' ' ' ' ' ' ' ' ' ' ' ' ' J.~ ~ ~ ~ ~ ~ ~ ~ 7.k.  K.6 6 6 6 6 6 6 T.].  ",
"  >.U.U.U.U.U.U.U.U.U.`     V.U.U.W.X.X.X.X.X.X.X.X.X.Y.U.U.U.U.U.U.U.U.U.U.U.U.U.Z.X.X.X.X.X.X.X.X.`.k.   +.+.+.+.+.+.+.+++,.  ",
"  @+#+#+#+#+#+#+#+#+#+$+    %+#+#+. - - - - - - - - - @ #+#+#+#+#+#+#+#+#+#+#+#+#+@ - - - - - - - - -     @+&+&+&+&+&+&+&+*+%+  ",
"                                                                                                                                ",
"  =+-+-+-+-+-+-+-+-+-+-+-+-+-+-+-+! ;+;+;+;+;+;+;+;+;+>+-+-+-+,+8   '+-+-+-+-+-+-+)+!+!+!+!+!+!+!+!+!+~+-+-+-+-+-+-+-+-+-+-+{+  ",
"  O ' ' ' ' ' ' ' ' ' ' ' ' ' ' ' ..~ ~ ~ ~ ~ ~ ~ ~ ~ r.' ' ' 2.8   {.' ' ' ' ' ' ' ' ' ' ' ' ' ' ' ' ' ' ' ' ' ' ' ' ' ' ' ].  ",
"  O ' ' ' ' ' ' ' ' ' ' ' ' ' ' ' ..~ ~ ~ ~ ~ ~ ~ ~ ~ r.' ' ' 2.8   {.' ' ' ' ' ' ' ' ' ' ' ' ' ' ' ' ' ' ' ' ' ' ' ' ' ' ' ].  ",
"  O ' ' ' ' ' ' ' ' ' ' ' ' ' ' ' ..~ ~ ~ ~ ~ ~ ~ ~ ~ r.' ' ' 2.8   {.' ' ' ' ' ' ' ' ' ' ' ' ' ' ' ' ' ' ' ' ' ' ' ' ' ' ' ].  ",
"  O ' ' ' ' ' ' ' ' ' ' ' ' ' ' ' ..~ ~ ~ ~ ~ ~ ~ ~ ~ r.' ' ' 2.8   {.' ' ' ' ' ' ' ' ' ' ' ' ' ' ' ' ' ' ' ' ' ' ' ' ' ' ' ].  ",
"  O ' ' ' ' ' ' ' ' ' ' ' ' ' ' ' ..~ ~ ~ ~ ~ ~ ~ ~ ~ r.' ' ' 2.8   {.' ' ' ' ' ' ' ' ' ' ' ' ' ' ' ' ' ' ' ' ' ' ' ' ' ' ' ].  ",
"  O ' ' ' ' ' ' ' ' ' ' ' ' ' ' ' ..~ ~ ~ ~ ~ ~ ~ ~ ~ r.' ' ' 2.8   {.' ' ' ' ' ' ' ' ' ' ' ' ' ' ' ' ' ' ' ' ' ' ' ' ' ' ' ].  ",
"  ]+6.6.6.6.6.6.6.6.6.6.6.6.6.6.6.^+/+/+/+/+/+/+/+/+/+(+6.6.6._+8   {.6.6.6.6.6.6.6.6.6.6.6.6.6.6.6.6.6.6.6.6.6.6.6.6.6.6.6.,.  ",
"  :+<+<+<+<+<+<+<+<+<+<+<+<+<+<+<+[+l.l.l.l.l.l.l.l.l.*+<+<+<+[+    }+<+<+<+<+<+<+<+<+<+<+<+<+<+<+<+<+<+<+<+<+<+<+<+<+<+<+<+#+  ",
"                                                                                                                                "};
