/* XPM */
static char * wall_2_xpm[] = {
"64 64 248 2",
"  	c #E65200",
". 	c #E75E1E",
"+ 	c #E9784D",
"@ 	c #ED9874",
"# 	c #F1B593",
"$ 	c #F5C9A8",
"% 	c #F7D4B3",
"& 	c #F7D8B7",
"* 	c #F7D6B5",
"= 	c #F8D7B5",
"- 	c #FAD8B7",
"; 	c #FAD9B7",
"> 	c #F5D4B3",
", 	c #E6C7A8",
"' 	c #CAAF93",
") 	c #A18B75",
"! 	c #6C5D4E",
"~ 	c #312921",
"{ 	c #000000",
"] 	c #E86833",
"^ 	c #EA7D54",
"/ 	c #ED9A76",
"( 	c #F1B392",
"_ 	c #F4C7A6",
": 	c #F6D1B0",
"< 	c #F8D6B5",
"[ 	c #F1D0B0",
"} 	c #E2C3A5",
"| 	c #C5AB90",
"1 	c #9D8872",
"2 	c #6A5B4C",
"3 	c #2F2820",
"4 	c #EB8A64",
"5 	c #EE9D7A",
"6 	c #F0B08E",
"7 	c #F3BF9E",
"8 	c #F6CFAE",
"9 	c #F6D2B1",
"0 	c #F2D2B1",
"a 	c #EECEAE",
"b 	c #E5C6A7",
"c 	c #D4B89B",
"d 	c #B9A087",
"e 	c #937F6A",
"f 	c #635546",
"g 	c #2C241D",
"h 	c #EEA27F",
"i 	c #EFA986",
"j 	c #F2B897",
"k 	c #F3C2A1",
"l 	c #F5CBAA",
"m 	c #F7D7B6",
"n 	c #F8D7B6",
"o 	c #F9D8B6",
"p 	c #EACAAB",
"q 	c #DEC0A2",
"r 	c #CEB397",
"s 	c #BBA288",
"t 	c #7F6D5B",
"u 	c #55493C",
"v 	c #251F18",
"w 	c #EEA17E",
"x 	c #EE9E7B",
"y 	c #EFA482",
"z 	c #F1B290",
"A 	c #F7D5B4",
"B 	c #F9D8B7",
"C 	c #F6D5B4",
"D 	c #EDCEAE",
"E 	c #C8AD92",
"F 	c #B09880",
"G 	c #98836E",
"H 	c #7E6C5B",
"I 	c #625445",
"J 	c #42382E",
"K 	c #1B1611",
"L 	c #EC916D",
"M 	c #ED946F",
"N 	c #EFA481",
"O 	c #F1D1B1",
"P 	c #8D7965",
"Q 	c #6C5C4D",
"R 	c #504438",
"S 	c #3A3128",
"T 	c #28211A",
"U 	c #0F0B08",
"V 	c #EC916C",
"W 	c #D5B89C",
"X 	c #97826D",
"Y 	c #3E352B",
"Z 	c #120E0A",
"` 	c #080504",
" .	c #030202",
"..	c #EEA07D",
"+.	c #EFA784",
"@.	c #A08A74",
"#.	c #7C6B59",
"$.	c #010100",
"%.	c #5E5042",
"&.	c #393027",
"*.	c #261F18",
"=.	c #F7D7B5",
"-.	c #F6D6B5",
";.	c #F8D8B7",
">.	c #F1D2B1",
",.	c #E8CAAB",
"'.	c #DDC0A2",
").	c #CEB297",
"!.	c #BBA188",
"~.	c #F7D8B6",
"{.	c #F5D5B5",
"].	c #ECCEAE",
"^.	c #F7D3B2",
"/.	c #F8D5B4",
"(.	c #F8D5B3",
"_.	c #F4D1B0",
":.	c #E7C6A7",
"<.	c #D1B397",
"[.	c #B29880",
"}.	c #8E7965",
"|.	c #4F4438",
"1.	c #F5CAA8",
"2.	c #F5C9A7",
"3.	c #F6CAA9",
"4.	c #F1C6A5",
"5.	c #E3BA9B",
"6.	c #C8A489",
"7.	c #A2846E",
"8.	c #725D4D",
"9.	c #41352B",
"0.	c #0D0E0A",
"a.	c #060504",
"b.	c #F1B493",
"c.	c #F3B694",
"d.	c #EEB290",
"e.	c #DFA687",
"f.	c #C39175",
"g.	c #9A715B",
"h.	c #654839",
"i.	c #22110A",
"j.	c #ED9975",
"k.	c #EE9975",
"l.	c #EF9A76",
"m.	c #EA9673",
"n.	c #DB8C6B",
"o.	c #BF7A5C",
"p.	c #975E46",
"q.	c #623929",
"r.	c #1F0200",
"s.	c #E9784C",
"t.	c #EA794F",
"u.	c #EA7A4F",
"v.	c #EB7B50",
"w.	c #E6784E",
"x.	c #D87048",
"y.	c #BD613E",
"z.	c #964C2F",
"A.	c #65301C",
"B.	c #2B0E04",
"C.	c #E75E1D",
"D.	c #E76125",
"E.	c #E86126",
"F.	c #E96227",
"G.	c #E46026",
"H.	c #D65A23",
"I.	c #BC4D1D",
"J.	c #953C15",
"K.	c #64260A",
"L.	c #2C0C02",
"M.	c #E65100",
"N.	c #E75500",
"O.	c #E75600",
"P.	c #E95700",
"Q.	c #E85700",
"R.	c #E35500",
"S.	c #D64F00",
"T.	c #BB4400",
"U.	c #953500",
"V.	c #642100",
"W.	c #2C0A00",
"X.	c #E85600",
"Y.	c #E35400",
"Z.	c #953400",
"`.	c #642000",
" +	c #E75807",
".+	c #E7590C",
"++	c #E95A0C",
"@+	c #E4580C",
"#+	c #D6520A",
"$+	c #BB4708",
"%+	c #953705",
"&+	c #642202",
"*+	c #2C0B00",
"=+	c #E75A10",
"-+	c #E95B10",
";+	c #E45910",
">+	c #D6530E",
",+	c #BB470B",
"'+	c #953706",
")+	c #642203",
"!+	c #2C0B01",
"~+	c #E85A10",
"{+	c #2A0A01",
"]+	c #EB5C10",
"^+	c #EA5B10",
"/+	c #E55910",
"(+	c #D7530E",
"_+	c #BC480B",
":+	c #943706",
"<+	c #612103",
"[+	c #200600",
"}+	c #010000",
"|+	c #210600",
"1+	c #E1570F",
"2+	c #D3520E",
"3+	c #BA470B",
"4+	c #973807",
"5+	c #6A2503",
"6+	c #3C1101",
"7+	c #0C0200",
"8+	c #050100",
"9+	c #030000",
"0+	c #C94D0C",
"a+	c #B6450A",
"b+	c #9D3A07",
"c+	c #7F2E05",
"d+	c #4C1802",
"e+	c #370F01",
"f+	c #230700",
"g+	c #070100",
"h+	c #B04309",
"i+	c #A83F08",
"j+	c #9C3A07",
"k+	c #8D3406",
"l+	c #782B04",
"m+	c #5C1F02",
"n+	c #B14309",
"o+	c #B5450A",
"p+	c #AE4209",
"q+	c #993907",
"r+	c #110200",
"s+	c #C34B0C",
"t+	c #C04A0B",
"u+	c #632203",
"v+	c #391001",
"w+	c #9D3B07",
"x+	c #B3440A",
"y+	c #AA4009",
"  . + @ # $ % & & * * * * * * * * * * * * * * * * * * * * * * * * * * * * * * * * * * * * * * * * * * * * * = - ; > , ' ) ! ~ { ",
". ] ^ / ( _ : * * * * * * * * * * * * * * * * * * * * * * * * * * * * * * * * * * * * * * * * * * * * * * * * < * [ } | 1 2 3 { ",
"+ ^ 4 5 6 7 $ 8 9 % * * * * * * * * * * * * * * * * * * * * * * * * * * * * * * * * * * * * * * * * * * < * > 0 a b c d e f g { ",
"@ / 5 h i 6 j k l 9 * m m * * * * * * * * * * * * * * * * * * * * * * * * * * * * * * * * * * * * * * n o * 0 p q r s ) t u v { ",
"# ( 6 i w x y z k 8 A & m * * * * * * * * * * * * * * * * * * * * * * * * * * * * * * * * * * * * * < o B C D q E F G H I J K { ",
"$ _ 7 6 x L M N j $ 9 A * * * * * * * * * * * * * * * * * * * * * * * * * * * * * * * * * * * * * * * * C O b r F P Q R S T U { ",
"% : $ j y M V x 6 7 $ 8 9 % * * * * * * * * * * * * * * * * * * * * * * * * * * * * * * * * * * < * > 0 D b W s X Q Y Z { `  .{ ",
"& * 8 k z N x ..+.6 j k l 9 * m m * * * * * * * * * * * * * * * * * * * * * * * * * * * * * * n o * 0 p q r s @.#.R Z { { { { $.",
"& * 9 l k j 6 +...x N z k 8 A & m * * * * * * * * * * * * * * * * * * * * * * * * * * * * * < o B C D q E F X #.%.&.{ { { { { $.",
"* * % 9 8 $ 7 6 x V M N j $ 9 A * * * * * * * * * * * * * * * * * * * * * * * * * * * * * * * * C O b r F P Q R &.*.` { { { { { ",
"* * * * A 9 $ j N M V x 6 7 $ 8 9 % * * * * * * * * * * * * * * * * * * * * * * * * * =.=.-.> 0 D b W s X Q Y Z { `  .{ { { { { ",
"* * * m & A 8 k z N x ..+.6 j k l 9 * & & & m m m m m m m m m m m m m m m m m m m m & ;.;.-.>.,.'.).!.@.#.R Z { { { { $.$.{ { { ",
"* * * m m * 9 l k j 6 +...x N z k 8 * & & m m m m m m m m m m m m m m m m m m m m m ~.;.;.{.].'.E F X #.%.&.{ { { { { $.$.{ { { ",
"* * * * * * % 9 8 $ 7 6 x V M y j $ : % A % ^.^.^.^.^.^.^.^.^.^.^.^.^.^.^.^.^.^.^.^.% /.(._.:.<.[.}.Q |.&.v ` { { { { { { { { { ",
"* * * * * * * * A 9 $ j N M L x 6 7 _ $ 1.$ 2.2.2.2.2.2.2.2.2.2.2.2.2.2.2.2.2.2.2.2.$ 3.3.4.5.6.7.8.9.0.{ a. .{ { { { { { { { { ",
"* * * * * * * m & A 8 k z y x w i 6 ( # # b.b.b.b.b.b.b.b.b.b.b.b.b.b.b.b.b.b.b.b.b.# c.c.d.e.f.g.h.i.{ { { { $.$.{ { { { { { { ",
"* * * * * * * m m * 9 l k j 6 i h 5 / @ @ j.j.j.j.j.j.j.j.j.j.j.j.j.j.j.j.j.j.j.j.j.k.l.l.m.n.o.p.q.r.{ { { { $.$.{ { { { { { { ",
"* * * * * * * * * * % 9 8 $ 7 6 5 4 ^ + s.t.u.u.u.u.u.u.u.u.u.u.u.u.u.u.u.u.u.u.u.u.u.v.v.w.x.y.z.A.B.{ { { { { { { { { { { { { ",
"* * * * * * * * * * * * * : _ ( / ^ ] . C.D.E.E.E.E.E.E.E.E.E.E.E.E.E.E.E.E.E.E.E.E.E.F.F.G.H.I.J.K.L.{ { { { { { { { { { { { { ",
"* * * * * * * * * * * & & % $ # @ + .   M.N.O.O.O.O.O.O.O.O.O.O.O.O.O.O.O.O.O.O.O.O.O.P.Q.R.S.T.U.V.W.{ { { { { { { { { { { { { ",
"* * * * * * * * * * * & & A 1.# @ s.C.M.M.N.O.O.O.O.O.O.O.O.O.O.O.O.O.O.O.O.O.O.O.O.O.X.X.Y.S.T.Z.`.W.{ { { { { { { { { { { { { ",
"* * * * * * * * * * * & m % $ b.j.t.D.N.N. +.+.+.+.+.+.+.+.+.+.+.+.+.+.+.+.+.+.+.+.+.+++++@+#+$+%+&+*+{ { { { { { { { { { { { { ",
"* * * * * * * * * * * m m ^.2.b.j.u.E.O.O..+=+=+=+=+=+=+=+=+=+=+=+=+=+=+=+=+=+=+=+=+=+-+-+;+>+,+'+)+!+{ { { { { { { { { { { { { ",
"* * * * * * * * * * * m m ^.2.b.j.u.E.O.O..+=+=+=+=+=+=+=+=+=+=+=+=+=+=+=+=+=+=+=+=+=+-+-+;+>+,+'+)+!+{ { { { { { { { { { { { { ",
"* * * * * * * * * * * m m ^.2.b.j.u.E.O.O..+=+=+=+=+=+=+=+=+=+=+=+=+=+=+=+=+=+=+=+=+=+-+-+;+>+,+'+)+!+{ { { { { { { { { { { { { ",
"* * * * * * * * * * * m m ^.2.b.j.u.E.O.O..+=+=+=+=+=+=+=+=+=+=+=+=+=+=+=+=+=+=+=+=+=+-+-+;+>+,+'+)+!+{ { { { { { { { { { { { { ",
"* * * * * * * * * * * m m ^.2.b.j.u.E.O.O..+=+=+=+=+=+=+=+=+=+=+=+=+=+=+=+=+=+=+=+=+=+-+-+;+>+,+'+)+!+{ { { { { { { { { { { { { ",
"* * * * * * * * * * * m m ^.2.b.j.u.E.O.O..+=+=+=+=+=+=+=+=+=+=+=+=+=+=+=+=+=+=+=+=+=+-+-+;+>+,+'+)+!+{ { { { { { { { { { { { { ",
"* * * * * * * * * * * m m ^.2.b.j.u.E.O.O..+=+=+=+=+=+=+=+=+=+=+=+=+=+=+=+=+=+=+=+=+=+-+-+;+>+,+'+)+!+{ { { { { { { { { { { { { ",
"* * * * * * * * * * * m m ^.2.b.j.u.E.O.O..+=+=+=+=+=+=+=+=+=+=+=+=+=+=+=+=+=+=+=+=+=+-+-+;+>+,+'+)+!+{ { { { { { { { { { { { { ",
"* * * * * * * * * * * m m ^.2.b.j.u.E.O.O..+=+=+=+=+=+=+=+=+=+=+=+=+=+=+=+=+=+=+=+=+=+-+-+;+>+,+'+)+!+{ { { { { { { { { { { { { ",
"* * * * * * * * * * * m m ^.2.b.j.u.E.O.O..+=+=+=+=+=+=+=+=+=+=+=+=+=+=+=+=+=+=+=+=+=+-+-+;+>+,+'+)+!+{ { { { { { { { { { { { { ",
"* * * * * * * * * * * m m ^.2.b.j.u.E.O.O..+=+=+=+=+=+=+=+=+=+=+=+=+=+=+=+=+=+=+=+=+=+-+-+;+>+,+'+)+!+{ { { { { { { { { { { { { ",
"* * * * * * * * * * * m m ^.2.b.j.u.E.O.O..+=+=+=+=+=+=+=+=+=+=+=+=+=+=+=+=+=+=+=+=+=+-+-+;+>+,+'+)+!+{ { { { { { { { { { { { { ",
"* * * * * * * * * * * m m ^.2.b.j.u.E.O.O..+=+=+=+=+=+=+=+=+=+=+=+=+=+=+=+=+=+=+=+=+=+-+-+;+>+,+'+)+!+{ { { { { { { { { { { { { ",
"* * * * * * * * * * * m m ^.2.b.j.u.E.O.O..+=+=+=+=+=+=+=+=+=+=+=+=+=+=+=+=+=+=+=+=+=+-+-+;+>+,+'+)+!+{ { { { { { { { { { { { { ",
"* * * * * * * * * * * m m ^.2.b.j.u.E.O.O..+=+=+=+=+=+=+=+=+=+=+=+=+=+=+=+=+=+=+=+=+=+-+-+;+>+,+'+)+!+{ { { { { { { { { { { { { ",
"* * * * * * * * * * * m m ^.2.b.j.u.E.O.O..+=+=+=+=+=+=+=+=+=+=+=+=+=+=+=+=+=+=+=+=+=+-+-+;+>+,+'+)+!+{ { { { { { { { { { { { { ",
"* * * * * * * * * * * m m ^.2.b.j.u.E.O.O..+=+=+=+=+=+=+=+=+=+=+=+=+=+=+=+=+=+=+=+=+=+-+-+;+>+,+'+)+!+{ { { { { { { { { { { { { ",
"* * * * * * * * * * * m m ^.2.b.j.u.E.O.O..+=+=+=+=+=+=+=+=+=+=+=+=+=+=+=+=+=+=+=+=+=+-+-+;+>+,+'+)+!+{ { { { { { { { { { { { { ",
"* * * * * * * * * * * m m ^.2.b.j.u.E.O.O..+=+=+=+=+=+=+=+=+=+=+=+=+=+=+=+=+=+=+=+=+=+-+-+;+>+,+'+)+!+{ { { { { { { { { { { { { ",
"* * * * * * * * * * * m m ^.2.b.j.u.E.O.O..+=+=+=+=+=+=+=+=+=+=+=+=+=+=+=+=+=+=+=+=+=+-+-+;+>+,+'+)+!+{ { { { { { { { { { { { { ",
"* * * * * * * * * * * & ~.% $ # k.u.E.O.O..+=+=+=+=+=+=+=+=+=+=+=+=+=+=+=+=+=+=+=+=+~+-+-+;+>+,+'+)+{+{ { { { { { { { { { { { { ",
"* * * * * * * * * * =.;.;./.3.c.l.v.F.P.X.++-+-+-+-+-+-+-+-+-+-+-+-+-+-+-+-+-+-+-+-+-+]+^+/+(+_+:+<+[+{ { { { }+}+{ { { { { { { ",
"* * * * * * * * * * =.;.;.(.3.c.l.v.F.Q.X.++-+-+-+-+-+-+-+-+-+-+-+-+-+-+-+-+-+-+-+-+-+^+^+/+(+_+:+<+|+{ { { { }+}+{ { { { { { { ",
"* * * * * * * * * * -.-.{._.4.d.m.w.G.R.Y.@+;+;+;+;+;+;+;+;+;+;+;+;+;+;+;+;+;+;+;+;+;+/+/+1+2+3+4+5+6+7+{ 8+9+{ { { { { { { { { ",
"* * * * * * * * < * > >.].:.5.e.n.x.H.S.S.#+>+>+>+>+>+>+>+>+>+>+>+>+>+>+>+>+>+>+>+>+>+(+(+2+0+a+b+c+)+d+e+f+g+{ { { { { { { { { ",
"* * * * * * * n o * 0 ,.'.<.6.f.o.y.I.T.T.$+,+,+,+,+,+,+,+,+,+,+,+,+,+,+,+,+,+,+,+,+,+_+_+3+a+h+i+j+k+l+m+e+{ { { { { }+}+{ { { ",
"* * * * * * < o B C D '.E [.7.g.p.z.J.U.Z.%+'+'+'+'+'+'+'+'+'+'+'+'+'+'+'+'+'+'+'+'+'+:+:+4+b+i+n+o+p+q+l+d+r+{ { { { }+}+{ { { ",
"* * * * * * * * C O b ).F }.8.h.q.A.K.V.`.&+)+)+)+)+)+)+)+)+)+)+)+)+)+)+)+)+)+)+)+)+)+<+<+5+c+j+o+s+t+p+k+u+v+r+{ g+9+{ { { { { ",
"* * * * < * > 0 D b W !.X Q 9.i.r.B.L.W.W.*+!+!+!+!+!+!+!+!+!+!+!+!+!+!+!+!+!+!+!+!+{+[+|+6+)+k+p+t+s+o+w+c+u+d+e+f+g+{ { { { { ",
"* * * n o * 0 p q r s @.#.|.0.{ { { { { { { { { { { { { { { { { { { { { { { { { { { { { { 7+d+l+q+p+o+x+y+w+k+l+m+e+{ { { { { }+",
"* * < o B C D q E F X #.%.&.{ { { { { { { { { { { { { { { { { { { { { { { { { { { { { { { { e+m+l+k+w+y+x+o+p+q+l+d+r+{ { { { }+",
"* * * * C O b r F P Q R &.v a.{ { { { { { { { { { { { { { { { { { { { { { { { { { { { { { 8+f+e+d+u+c+w+o+s+t+p+k+u+v+r+{ g+9+{ ",
"= * > 0 D b W s X Q Y Z { `  .{ { { { { { { { { { { { { { { { { { { { { { { { { { { { { { 9+g+{ r+v+u+k+p+t+s+o+w+c+u+d+e+f+8+{ ",
"- < 0 p q r s @.#.R Z { { { { $.$.{ { { { { { { { { { { { { { { { { { { { { { { { { { }+}+{ { { { r+d+l+q+p+o+x+y+w+k+l+m+e+{ { ",
"; * a q E F X #.%.&.{ { { { { $.$.{ { { { { { { { { { { { { { { { { { { { { { { { { { }+}+{ { { { { e+m+l+k+w+y+x+o+p+q+l+d+7+{ ",
"> [ b r F P Q R &.*.` { { { { { { { { { { { { { { { { { { { { { { { { { { { { { { { { { { { { { { g+f+e+d+u+c+w+o+s+t+p+k+)+6+|+",
", } c s G Q Y Z { `  .{ { { { { { { { { { { { { { { { { { { { { { { { { { { { { { { { { { { { { { 9+g+{ r+v+u+k+p+t+s+o+j+c+5+<+",
"' | d ) H R Z { { { { $.$.{ { { { { { { { { { { { { { { { { { { { { { { { { { { { { { { { { { }+}+{ { { { r+d+l+q+p+o+n+i+b+4+:+",
") 1 e t I S { { { { { $.$.{ { { { { { { { { { { { { { { { { { { { { { { { { { { { { { { { { { }+}+{ { { { { e+m+l+k+j+i+h+a+3+_+",
"! 2 f u J T ` { { { { { { { { { { { { { { { { { { { { { { { { { { { { { { { { { { { { { { { { { { { { { { g+f+e+d+)+c+b+a+0+2+(+",
"~ 3 g v K U  .{ { { { { { { { { { { { { { { { { { { { { { { { { { { { { { { { { { { { { { { { { { { { { { 9+8+{ 7+6+5+4+3+2+1+/+",
"{ { { { { { { $.$.{ { { { { { { { { { { { { { { { { { { { { { { { { { { { { { { { { { { { { { { { { { }+}+{ { { { |+<+:+_+(+/+^+"};
