/* XPM */
static char * wall_3_xpm[] = {
"32 32 94 2",
"  	c #E76026",
". 	c #EB8C66",
"+ 	c #F3BE9C",
"@ 	c #F7D4B3",
"# 	c #F7D6B5",
"$ 	c #F8D7B5",
"% 	c #F5D4B3",
"& 	c #D5B99C",
"* 	c #897663",
"= 	c #262019",
"- 	c #ED9A77",
"; 	c #F1B290",
"> 	c #F4C4A3",
", 	c #F6D1B0",
"' 	c #F8D6B5",
") 	c #F0D0B0",
"! 	c #DFC1A3",
"~ 	c #BBA188",
"{ 	c #766655",
"] 	c #201A14",
"^ 	c #EE9D7A",
"/ 	c #EFA583",
"( 	c #B09880",
"_ 	c #7A6857",
": 	c #473C31",
"< 	c #100C09",
"[ 	c #BBA288",
"} 	c #796857",
"| 	c #29221B",
"1 	c #070503",
"2 	c #010101",
"3 	c #EFA582",
"4 	c #43392E",
"5 	c #060403",
"6 	c #000000",
"7 	c #F7D7B6",
"8 	c #F7D7B5",
"9 	c #F7D5B4",
"0 	c #F6D4B3",
"a 	c #E0C1A3",
"b 	c #F3BF9D",
"c 	c #F3BE9D",
"d 	c #F4BF9E",
"e 	c #F1BD9C",
"f 	c #D3A588",
"g 	c #8A6B58",
"h 	c #2D231B",
"i 	c #EB8A64",
"j 	c #EC8B65",
"k 	c #ED8C66",
"l 	c #EA8A64",
"m 	c #CC7756",
"n 	c #814932",
"o 	c #1F0903",
"p 	c #E75B1A",
"q 	c #E85D1D",
"r 	c #E65D1D",
"s 	c #C95018",
"t 	c #81300B",
"u 	c #230801",
"v 	c #E75502",
"w 	c #E75806",
"x 	c #E85806",
"y 	c #E55706",
"z 	c #C84B05",
"A 	c #812D02",
"B 	c #230700",
"C 	c #E75A10",
"D 	c #E85A10",
"E 	c #E65A10",
"F 	c #C84D0C",
"G 	c #812E05",
"H 	c #230701",
"I 	c #E85B10",
"J 	c #E95B10",
"K 	c #C94D0C",
"L 	c #802E05",
"M 	c #1F0600",
"N 	c #E45910",
"O 	c #822F05",
"P 	c #2A0A00",
"Q 	c #050100",
"R 	c #010000",
"S 	c #B9460A",
"T 	c #993907",
"U 	c #722804",
"V 	c #411301",
"W 	c #060100",
"X 	c #B6450A",
"Y 	c #AC4109",
"Z 	c #712804",
"` 	c #260800",
" .	c #B7460A",
"..	c #9A3907",
"  . + @ # # # # # # # # # # # # # # # # # # # # # # # $ % & * = ",
". - ; > , # # # # # # # # # # # # # # # # # # # # # ' ) ! ~ { ] ",
"+ ; ^ / > @ # # # # # # # # # # # # # # # # # # # ' % ! ( _ : < ",
"@ > / ^ ; > , # # # # # # # # # # # # # # # # # ' ) ! [ } | 1 2 ",
"# , > ; ^ 3 > @ # # # # # # # # # # # # # # # ' % ! ( } 4 5 6 6 ",
"# # @ > 3 ^ ; > , # 7 7 7 7 7 7 7 7 7 7 7 7 8 ) ! [ } | 5 2 6 6 ",
"# # # , > ; ^ / > @ # 9 9 9 9 9 9 9 9 9 9 # 0 a ( } 4 5 6 6 6 6 ",
"# # # # @ > / ^ ; + b c c c c c c c c c c d e f g h 5 2 6 6 6 6 ",
"# # # # # , > ; - . i j j j j j j j j j j k l m n o 6 6 6 6 6 6 ",
"# # # # # # @ + .   p q q q q q q q q q q q r s t u 6 6 6 6 6 6 ",
"# # # # # 7 # b i p v w w w w w w w w w w x y z A B 6 6 6 6 6 6 ",
"# # # # # 7 9 c j q w C C C C C C C C C C D E F G H 6 6 6 6 6 6 ",
"# # # # # 7 9 c j q w C C C C C C C C C C I E F G H 6 6 6 6 6 6 ",
"# # # # # 7 9 c j q w C C C C C C C C C C I E F G H 6 6 6 6 6 6 ",
"# # # # # 7 9 c j q w C C C C C C C C C C I E F G H 6 6 6 6 6 6 ",
"# # # # # 7 9 c j q w C C C C C C C C C C I E F G H 6 6 6 6 6 6 ",
"# # # # # 7 9 c j q w C C C C C C C C C C I E F G H 6 6 6 6 6 6 ",
"# # # # # 7 9 c j q w C C C C C C C C C C I E F G H 6 6 6 6 6 6 ",
"# # # # # 7 9 c j q w C C C C C C C C C C I E F G H 6 6 6 6 6 6 ",
"# # # # # 7 9 c j q w C C C C C C C C C C I E F G H 6 6 6 6 6 6 ",
"# # # # # 7 9 c j q w C C C C C C C C C C I E F G H 6 6 6 6 6 6 ",
"# # # # # 7 # d k q x D I I I I I I I I I J E K L M 6 6 6 6 6 6 ",
"# # # # # 8 0 e l r y E E E E E E E E E E E N F O P Q R 6 6 6 6 ",
"# # # # ' ) a f m s z F F F F F F F F F F K F S T U V W 6 6 6 6 ",
"# # # ' % ! ( g n t A G G G G G G G G G G L O T X Y Z ` W R 6 6 ",
"# # ' ) ! [ } h o u B H H H H H H H H H H M P U Y  ...Z V W 6 6 ",
"# ' % ! ( } 4 5 6 6 6 6 6 6 6 6 6 6 6 6 6 6 Q V Z .. .Y Z ` W R ",
"$ ) ! [ } | 5 2 6 6 6 6 6 6 6 6 6 6 6 6 6 6 R W ` Z Y  ...Z V Q ",
"% ! ( } 4 5 6 6 6 6 6 6 6 6 6 6 6 6 6 6 6 6 6 6 W V Z .. .Y U P ",
"& ~ _ | 5 2 6 6 6 6 6 6 6 6 6 6 6 6 6 6 6 6 6 6 R W ` Z Y X T O ",
"* { : 1 6 6 6 6 6 6 6 6 6 6 6 6 6 6 6 6 6 6 6 6 6 6 W V U T S F ",
"= ] < 2 6 6 6 6 6 6 6 6 6 6 6 6 6 6 6 6 6 6 6 6 6 6 R Q P O F N "};
